<svg xmlns="http://www.w3.org/2000/svg" xmlns:xlink="http://www.w3.org/1999/xlink" class="httpgd" width="958.00" height="573.00" viewBox="0 0 958.00 573.00">
<defs>
  <style type='text/css'><![CDATA[
    .httpgd line, .httpgd polyline, .httpgd polygon, .httpgd path, .httpgd rect, .httpgd circle {
      fill: none;
      stroke: #000000;
      stroke-linecap: round;
      stroke-linejoin: round;
      stroke-miterlimit: 10.00;
    }
  ]]></style>
<clipPath id="c0"><rect x="0.00" y="0.00" width="958.00" height="573.00"/></clipPath>
<clipPath id="c1"><rect x="0.00" y="15.81" width="479.00" height="557.19"/></clipPath>
<clipPath id="c2"><rect x="0.00" y="0.00" width="958.00" height="573.00"/></clipPath>
<clipPath id="c3"><rect x="107.61" y="21.29" width="365.91" height="519.98"/></clipPath>
<clipPath id="c4"><rect x="0.00" y="0.00" width="958.00" height="573.00"/></clipPath>
<clipPath id="c5"><rect x="479.00" y="54.91" width="479.00" height="479.00"/></clipPath>
<clipPath id="c6"><rect x="0.00" y="0.00" width="958.00" height="573.00"/></clipPath>
</defs>
<rect width="100%" height="100%" style="stroke: none;fill: #FFFFFF;"/>
<g clip-path="url(#c0)">
</g><g clip-path="url(#c3)">
<polyline points="166.11,541.27 166.11,21.29" style="stroke-width: 0.53;stroke: #EBEBEB;stroke-linecap: butt;"/>
<polyline points="249.86,541.27 249.86,21.29" style="stroke-width: 0.53;stroke: #EBEBEB;stroke-linecap: butt;"/>
<polyline points="333.61,541.27 333.61,21.29" style="stroke-width: 0.53;stroke: #EBEBEB;stroke-linecap: butt;"/>
<polyline points="417.36,541.27 417.36,21.29" style="stroke-width: 0.53;stroke: #EBEBEB;stroke-linecap: butt;"/>
<polyline points="107.61,466.98 473.52,466.98" style="stroke-width: 1.07;stroke: #EBEBEB;stroke-linecap: butt;"/>
<polyline points="107.61,343.18 473.52,343.18" style="stroke-width: 1.07;stroke: #EBEBEB;stroke-linecap: butt;"/>
<polyline points="107.61,219.38 473.52,219.38" style="stroke-width: 1.07;stroke: #EBEBEB;stroke-linecap: butt;"/>
<polyline points="107.61,95.57 473.52,95.57" style="stroke-width: 1.07;stroke: #EBEBEB;stroke-linecap: butt;"/>
<polyline points="124.24,541.27 124.24,21.29" style="stroke-width: 1.07;stroke: #EBEBEB;stroke-linecap: butt;"/>
<polyline points="207.99,541.27 207.99,21.29" style="stroke-width: 1.07;stroke: #EBEBEB;stroke-linecap: butt;"/>
<polyline points="291.74,541.27 291.74,21.29" style="stroke-width: 1.07;stroke: #EBEBEB;stroke-linecap: butt;"/>
<polyline points="375.48,541.27 375.48,21.29" style="stroke-width: 1.07;stroke: #EBEBEB;stroke-linecap: butt;"/>
<polyline points="459.23,541.27 459.23,21.29" style="stroke-width: 1.07;stroke: #EBEBEB;stroke-linecap: butt;"/>
<rect x="124.24" y="411.27" width="6.70" height="111.42" style="stroke-width: 1.07;stroke: none;stroke-linecap: butt;stroke-linejoin: miter;fill: #899DA4;"/>
<rect x="124.24" y="287.47" width="4.35" height="111.42" style="stroke-width: 1.07;stroke: none;stroke-linecap: butt;stroke-linejoin: miter;fill: #C93312;"/>
<rect x="124.24" y="163.66" width="61.97" height="111.42" style="stroke-width: 1.07;stroke: none;stroke-linecap: butt;stroke-linejoin: miter;fill: #FAEFD1;"/>
<rect x="124.24" y="39.86" width="332.65" height="111.42" style="stroke-width: 1.07;stroke: none;stroke-linecap: butt;stroke-linejoin: miter;fill: #DC863B;"/>
<g><text x="135.85" y="470.94" style="font-family: Arial;font-size: 11.04px;" textLength="12.27px" lengthAdjust="spacingAndGlyphs">20</text></g>
<g><text x="133.50" y="347.14" style="font-family: Arial;font-size: 11.04px;" textLength="12.27px" lengthAdjust="spacingAndGlyphs">13</text></g>
<g><text x="193.57" y="223.33" style="font-family: Arial;font-size: 11.04px;" textLength="18.40px" lengthAdjust="spacingAndGlyphs">185</text></g>
<g><text x="453.21" y="99.53" text-anchor="end" style="font-family: Arial;font-size: 11.04px;" textLength="18.40px" lengthAdjust="spacingAndGlyphs">993</text></g>
</g><g clip-path="url(#c4)">
<g><text x="102.68" y="470.14" text-anchor="end" style="font-family: Arial;font-size: 8.80px;fill: #4D4D4D;" textLength="63.58px" lengthAdjust="spacingAndGlyphs">very_active_min</text></g>
<g><text x="102.68" y="346.33" text-anchor="end" style="font-family: Arial;font-size: 8.80px;fill: #4D4D4D;" textLength="84.13px" lengthAdjust="spacingAndGlyphs">moderate_active_min</text></g>
<g><text x="102.68" y="222.53" text-anchor="end" style="font-family: Arial;font-size: 8.80px;fill: #4D4D4D;" textLength="63.09px" lengthAdjust="spacingAndGlyphs">light_active_min</text></g>
<g><text x="102.68" y="98.73" text-anchor="end" style="font-family: Arial;font-size: 8.80px;fill: #4D4D4D;" textLength="70.93px" lengthAdjust="spacingAndGlyphs">seden_active_min</text></g>
<g><text x="124.24" y="552.50" text-anchor="middle" style="font-family: Arial;font-size: 8.80px;fill: #4D4D4D;" textLength="4.90px" lengthAdjust="spacingAndGlyphs">0</text></g>
<g><text x="207.99" y="552.50" text-anchor="middle" style="font-family: Arial;font-size: 8.80px;fill: #4D4D4D;" textLength="14.69px" lengthAdjust="spacingAndGlyphs">250</text></g>
<g><text x="291.74" y="552.50" text-anchor="middle" style="font-family: Arial;font-size: 8.80px;fill: #4D4D4D;" textLength="14.69px" lengthAdjust="spacingAndGlyphs">500</text></g>
<g><text x="375.48" y="552.50" text-anchor="middle" style="font-family: Arial;font-size: 8.80px;fill: #4D4D4D;" textLength="14.69px" lengthAdjust="spacingAndGlyphs">750</text></g>
<g><text x="459.23" y="552.50" text-anchor="middle" style="font-family: Arial;font-size: 8.80px;fill: #4D4D4D;" textLength="19.58px" lengthAdjust="spacingAndGlyphs">1000</text></g>
<g><text x="290.56" y="565.09" text-anchor="middle" style="font-family: Arial;font-size: 11.00px;" textLength="48.28px" lengthAdjust="spacingAndGlyphs">Total time</text></g>
<g><text transform="translate(13.37,281.28) rotate(-90.00)" text-anchor="middle" style="font-family: Arial;font-size: 11.00px;" textLength="58.67px" lengthAdjust="spacingAndGlyphs">Activity type</text></g>
</g><g clip-path="url(#c5)">
<polygon points="718.50,294.41 718.50,287.80 718.50,281.19 718.50,274.58 718.50,267.98 718.50,261.37 718.50,254.76 718.50,248.16 718.50,241.55 718.50,234.94 718.50,228.34 718.50,221.73 718.50,215.12 718.50,208.52 718.50,201.91 718.50,195.30 718.50,188.70 718.50,182.09 718.50,175.48 718.50,168.87 718.50,162.27 718.50,155.66 718.50,149.05 718.50,142.45 718.50,135.84 718.50,129.23 718.50,122.63 718.50,116.02 718.50,109.41 718.50,102.81 711.87,102.92 705.26,103.26 698.65,103.84 699.34,110.41 700.02,116.98 700.71,123.55 701.39,130.12 702.08,136.69 702.76,143.26 703.44,149.84 704.13,156.41 704.81,162.98 705.50,169.55 706.18,176.12 706.87,182.69 707.55,189.26 708.23,195.84 708.92,202.41 709.60,208.98 710.29,215.55 710.97,222.12 711.66,228.69 712.34,235.26 713.03,241.83 713.71,248.41 714.39,254.98 715.08,261.55 715.76,268.12 716.45,274.69 717.13,281.26 717.82,287.83 718.50,294.41 718.50,294.41" style="stroke-width: 1.07;stroke: none;stroke-linecap: butt;stroke-linejoin: miter;fill: #899DA4;" />
<polygon points="718.50,294.41 717.82,287.83 717.13,281.26 716.45,274.69 715.76,268.12 715.08,261.55 714.39,254.98 713.71,248.41 713.03,241.83 712.34,235.26 711.66,228.69 710.97,222.12 710.29,215.55 709.60,208.98 708.92,202.41 708.23,195.84 707.55,189.26 706.87,182.69 706.18,176.12 705.50,169.55 704.81,162.98 704.13,156.41 703.44,149.84 702.76,143.26 702.08,136.69 701.39,130.12 700.71,123.55 700.02,116.98 699.34,110.41 698.65,103.84 685.85,105.61 686.98,112.12 688.11,118.63 689.23,125.14 690.36,131.65 691.48,138.16 692.61,144.67 693.73,151.18 694.86,157.69 695.99,164.20 697.11,170.71 698.24,177.22 699.36,183.73 700.49,190.24 701.61,196.75 702.74,203.26 703.87,209.77 704.99,216.28 706.12,222.79 707.24,229.30 708.37,235.81 709.49,242.32 710.62,248.83 711.75,255.34 712.87,261.85 714.00,268.36 715.12,274.87 716.25,281.39 717.37,287.90 718.50,294.41 718.50,294.41" style="stroke-width: 1.07;stroke: none;stroke-linecap: butt;stroke-linejoin: miter;fill: #C93312;" />
<polygon points="718.50,294.41 717.37,287.90 716.25,281.39 715.12,274.87 714.00,268.36 712.87,261.85 711.75,255.34 710.62,248.83 709.49,242.32 708.37,235.81 707.24,229.30 706.12,222.79 704.99,216.28 703.87,209.77 702.74,203.26 701.61,196.75 700.49,190.24 699.36,183.73 698.24,177.22 697.11,170.71 695.99,164.20 694.86,157.69 693.73,151.18 692.61,144.67 691.48,138.16 690.36,131.65 689.23,125.14 688.11,118.63 686.98,112.12 685.85,105.61 679.40,106.84 673.00,108.29 666.64,109.96 660.35,111.84 654.13,113.94 647.98,116.25 641.92,118.78 635.94,121.50 630.07,124.43 624.29,127.57 618.63,130.89 613.08,134.41 607.66,138.12 602.37,142.01 597.22,146.08 592.20,150.32 587.34,154.74 582.63,159.31 578.08,164.05 573.69,168.94 569.48,173.98 565.44,179.15 561.58,184.47 557.90,189.91 554.42,195.48 551.12,201.16 548.02,206.95 545.13,212.84 551.11,215.66 557.08,218.47 563.06,221.28 569.04,224.09 575.02,226.91 581.00,229.72 586.98,232.53 592.95,235.34 598.93,238.16 604.91,240.97 610.89,243.78 616.87,246.59 622.85,249.41 628.82,252.22 634.80,255.03 640.78,257.84 646.76,260.66 652.74,263.47 658.72,266.28 664.69,269.09 670.67,271.91 676.65,274.72 682.63,277.53 688.61,280.34 694.59,283.16 700.56,285.97 706.54,288.78 712.52,291.59 718.50,294.41 718.50,294.41" style="stroke-width: 1.07;stroke: none;stroke-linecap: butt;stroke-linejoin: miter;fill: #FAEFD1;" />
<polygon points="718.50,294.41 712.52,291.59 706.54,288.78 700.56,285.97 694.59,283.16 688.61,280.34 682.63,277.53 676.65,274.72 670.67,271.91 664.69,269.09 658.72,266.28 652.74,263.47 646.76,260.66 640.78,257.84 634.80,255.03 628.82,252.22 622.85,249.41 616.87,246.59 610.89,243.78 604.91,240.97 598.93,238.16 592.95,235.34 586.98,232.53 581.00,229.72 575.02,226.91 569.04,224.09 563.06,221.28 557.08,218.47 551.11,215.66 545.13,212.84 542.46,218.77 540.00,224.78 537.74,230.86 535.69,237.03 533.85,243.26 532.23,249.54 530.81,255.88 529.62,262.26 528.63,268.68 527.87,275.13 527.33,281.60 527.00,288.09 526.90,294.58 527.02,301.08 527.35,307.56 527.91,314.03 528.68,320.48 529.67,326.90 530.88,333.28 532.31,339.61 533.95,345.90 535.80,352.12 537.86,358.28 540.13,364.36 542.60,370.37 545.28,376.29 548.15,382.11 551.22,387.83 554.48,393.45 557.93,398.95 561.57,404.33 565.39,409.59 569.38,414.71 573.54,419.69 577.87,424.53 582.36,429.22 587.01,433.76 591.80,438.14 596.75,442.35 601.83,446.39 607.05,450.26 612.39,453.94 617.86,457.45 623.44,460.76 629.14,463.89 634.93,466.82 640.82,469.55 646.80,472.09 652.87,474.41 659.00,476.53 665.21,478.45 671.48,480.15 677.80,481.63 684.17,482.90 690.58,483.96 697.02,484.80 703.48,485.42 709.96,485.82 716.45,485.99 722.95,485.95 729.44,485.69 735.91,485.21 742.37,484.51 748.80,483.60 755.19,482.46 761.54,481.11 767.85,479.54 774.09,477.76 780.27,475.77 786.38,473.58 792.42,471.17 798.36,468.57 804.22,465.76 809.98,462.76 815.63,459.56 821.17,456.17 826.60,452.60 831.89,448.85 837.06,444.92 842.10,440.81 846.99,436.54 851.73,432.10 856.32,427.51 860.75,422.76 865.02,417.87 869.12,412.83 873.05,407.66 876.80,402.36 880.36,396.93 883.74,391.39 886.94,385.73 889.93,379.97 892.73,374.11 895.34,368.16 897.73,362.12 899.93,356.01 901.91,349.83 903.68,343.58 905.24,337.28 906.59,330.92 907.72,324.53 908.63,318.10 909.32,311.64 909.80,305.17 910.05,298.68 910.09,292.18 909.90,285.69 909.50,279.21 908.87,272.75 908.03,266.31 906.97,259.90 905.69,253.53 904.20,247.21 902.49,240.95 900.57,234.74 898.45,228.61 896.11,222.55 893.58,216.57 890.84,210.68 887.90,204.89 884.77,199.20 881.45,193.62 877.94,188.15 874.25,182.81 870.38,177.60 866.33,172.52 862.11,167.58 857.73,162.78 853.19,158.14 848.50,153.65 843.65,149.33 838.66,145.17 833.54,141.18 828.28,137.37 822.90,133.74 817.39,130.30 811.77,127.04 806.05,123.98 800.22,121.11 794.30,118.44 788.29,115.97 782.21,113.71 776.05,111.65 769.82,109.81 763.54,108.17 757.20,106.75 750.82,105.55 744.40,104.56 737.95,103.80 731.48,103.25 724.99,102.92 718.50,102.81 718.50,109.41 718.50,116.02 718.50,122.63 718.50,129.23 718.50,135.84 718.50,142.45 718.50,149.05 718.50,155.66 718.50,162.27 718.50,168.87 718.50,175.48 718.50,182.09 718.50,188.70 718.50,195.30 718.50,201.91 718.50,208.52 718.50,215.12 718.50,221.73 718.50,228.34 718.50,234.94 718.50,241.55 718.50,248.16 718.50,254.76 718.50,261.37 718.50,267.98 718.50,274.58 718.50,281.19 718.50,287.80 718.50,294.41 718.50,294.41" style="stroke-width: 1.07;stroke: none;stroke-linecap: butt;stroke-linejoin: miter;fill: #DC863B;" />
<polygon points="693.98,198.86 729.12,198.86 729.03,198.86 729.38,198.84 729.72,198.77 730.04,198.65 730.35,198.48 730.62,198.26 730.85,198.00 731.03,197.70 731.17,197.38 731.25,197.04 731.28,196.70 731.28,196.70 731.28,185.65 731.28,185.65 731.25,185.31 731.17,184.97 731.03,184.65 730.85,184.36 730.62,184.10 730.35,183.88 730.04,183.70 729.72,183.58 729.38,183.51 729.12,183.49 693.98,183.49 694.24,183.51 693.89,183.50 693.54,183.54 693.21,183.63 692.90,183.78 692.61,183.98 692.36,184.22 692.15,184.50 691.99,184.81 691.88,185.14 691.82,185.48 691.82,185.65 691.82,196.70 691.82,196.52 691.82,196.87 691.88,197.22 691.99,197.54 692.15,197.85 692.36,198.13 692.61,198.37 692.90,198.57 693.21,198.72 693.54,198.81 693.89,198.86" style="stroke-width: 0.53;fill: #899DA4;" />
<g><text x="711.55" y="195.44" text-anchor="middle" style="font-family: Arial;font-size: 11.38px;" textLength="32.26px" lengthAdjust="spacingAndGlyphs">1.65%</text></g>
<polygon points="686.52,161.28 721.66,161.28 721.58,161.28 721.92,161.27 722.26,161.20 722.59,161.07 722.89,160.90 723.16,160.68 723.39,160.42 723.57,160.13 723.71,159.81 723.79,159.47 723.82,159.12 723.82,159.12 723.82,148.08 723.82,148.08 723.79,147.73 723.71,147.39 723.57,147.07 723.39,146.78 723.16,146.52 722.89,146.30 722.59,146.13 722.26,146.00 721.92,145.93 721.66,145.92 686.52,145.92 686.78,145.93 686.43,145.92 686.09,145.96 685.75,146.06 685.44,146.21 685.15,146.41 684.90,146.65 684.69,146.92 684.53,147.23 684.42,147.56 684.37,147.90 684.36,148.08 684.36,159.12 684.37,158.95 684.37,159.30 684.42,159.64 684.53,159.97 684.69,160.28 684.90,160.56 685.15,160.80 685.44,160.99 685.75,161.14 686.09,161.24 686.43,161.28" style="stroke-width: 0.53;fill: #C93312;" />
<g><text x="704.09" y="158.80" text-anchor="middle" style="font-family: Arial;font-size: 11.38px;" textLength="32.26px" lengthAdjust="spacingAndGlyphs">1.07%</text></g>
<polygon points="626.23,230.69 667.70,230.69 667.61,230.68 667.96,230.67 668.30,230.60 668.63,230.48 668.93,230.30 669.20,230.08 669.43,229.82 669.61,229.53 669.75,229.21 669.83,228.87 669.86,228.53 669.86,228.53 669.86,217.48 669.86,217.48 669.83,217.13 669.75,216.80 669.61,216.48 669.43,216.18 669.20,215.92 668.93,215.70 668.63,215.53 668.30,215.41 667.96,215.34 667.70,215.32 626.23,215.32 626.49,215.34 626.14,215.32 625.80,215.36 625.46,215.46 625.15,215.61 624.86,215.81 624.61,216.05 624.40,216.33 624.24,216.63 624.13,216.96 624.08,217.31 624.07,217.48 624.07,228.53 624.08,228.35 624.08,228.70 624.13,229.04 624.24,229.37 624.40,229.68 624.61,229.96 624.86,230.20 625.15,230.40 625.46,230.55 625.80,230.64 626.14,230.68" style="stroke-width: 0.53;fill: #FAEFD1;" />
<g><text x="646.96" y="227.27" text-anchor="middle" style="font-family: Arial;font-size: 11.38px;" textLength="38.59px" lengthAdjust="spacingAndGlyphs">15.28%</text></g>
<polygon points="793.53,315.04 835.01,315.04 834.92,315.04 835.27,315.03 835.61,314.96 835.93,314.83 836.23,314.66 836.50,314.44 836.73,314.18 836.92,313.89 837.05,313.57 837.14,313.23 837.17,312.88 837.17,312.88 837.17,301.84 837.17,301.84 837.14,301.49 837.05,301.15 836.92,300.83 836.73,300.54 836.50,300.28 836.23,300.06 835.93,299.89 835.61,299.76 835.27,299.69 835.01,299.68 793.53,299.68 793.79,299.69 793.45,299.68 793.10,299.72 792.77,299.82 792.45,299.97 792.17,300.16 791.92,300.41 791.71,300.68 791.55,300.99 791.44,301.32 791.38,301.66 791.37,301.84 791.37,312.88 791.38,312.71 791.38,313.06 791.44,313.40 791.55,313.73 791.71,314.04 791.92,314.31 792.17,314.56 792.45,314.75 792.77,314.90 793.10,315.00 793.45,315.04" style="stroke-width: 0.53;fill: #DC863B;" />
<g><text x="814.27" y="311.07" text-anchor="middle" style="font-family: Arial;font-size: 11.38px;" textLength="38.59px" lengthAdjust="spacingAndGlyphs">82.00%</text></g>
</g><g clip-path="url(#c6)">
<g><text x="479.00" y="12.21" text-anchor="middle" style="font-family: Arial;font-size: 12.00px;" textLength="266.73px" lengthAdjust="spacingAndGlyphs">Daily average activity time distribution (in minutes)</text></g>
</g>
</svg>