<svg xmlns="http://www.w3.org/2000/svg" xmlns:xlink="http://www.w3.org/1999/xlink" class="httpgd" width="784.00" height="447.00" viewBox="0 0 784.00 447.00">
<defs>
<clipPath id="c0-04c09fb5-6751-4213-9726-fc2e335a23cd"><rect x="0.00" y="0.00" width="784.00" height="447.00"/></clipPath>
<clipPath id="c1-04c09fb5-6751-4213-9726-fc2e335a23cd"><rect x="0.00" y="15.81" width="392.00" height="431.19"/></clipPath>
<clipPath id="c2-04c09fb5-6751-4213-9726-fc2e335a23cd"><rect x="0.00" y="0.00" width="784.00" height="447.00"/></clipPath>
<clipPath id="c3-04c09fb5-6751-4213-9726-fc2e335a23cd"><rect x="107.61" y="21.29" width="278.91" height="393.98"/></clipPath>
<clipPath id="c4-04c09fb5-6751-4213-9726-fc2e335a23cd"><rect x="0.00" y="0.00" width="784.00" height="447.00"/></clipPath>
<clipPath id="c5-04c09fb5-6751-4213-9726-fc2e335a23cd"><rect x="392.00" y="35.41" width="392.00" height="392.00"/></clipPath>
<clipPath id="c6-04c09fb5-6751-4213-9726-fc2e335a23cd"><rect x="0.00" y="0.00" width="784.00" height="447.00"/></clipPath>
</defs>
<rect width="100%" height="100%" stroke="none" fill="#FFFFFF"/>
<g clip-path="url(#c0-04c09fb5-6751-4213-9726-fc2e335a23cd)">
</g><g clip-path="url(#c3-04c09fb5-6751-4213-9726-fc2e335a23cd)">
<polyline points="151.85,415.27 151.85,21.29" fill="none" stroke-width="0.53" stroke="#EBEBEB" stroke-linejoin="round"/>
<polyline points="214.99,415.27 214.99,21.29" fill="none" stroke-width="0.53" stroke="#EBEBEB" stroke-linejoin="round"/>
<polyline points="278.13,415.27 278.13,21.29" fill="none" stroke-width="0.53" stroke="#EBEBEB" stroke-linejoin="round"/>
<polyline points="341.26,415.27 341.26,21.29" fill="none" stroke-width="0.53" stroke="#EBEBEB" stroke-linejoin="round"/>
<polyline points="107.61,358.98 386.52,358.98" fill="none" stroke-width="1.07" stroke="#EBEBEB" stroke-linejoin="round"/>
<polyline points="107.61,265.18 386.52,265.18" fill="none" stroke-width="1.07" stroke="#EBEBEB" stroke-linejoin="round"/>
<polyline points="107.61,171.38 386.52,171.38" fill="none" stroke-width="1.07" stroke="#EBEBEB" stroke-linejoin="round"/>
<polyline points="107.61,77.57 386.52,77.57" fill="none" stroke-width="1.07" stroke="#EBEBEB" stroke-linejoin="round"/>
<polyline points="120.29,415.27 120.29,21.29" fill="none" stroke-width="1.07" stroke="#EBEBEB" stroke-linejoin="round"/>
<polyline points="183.42,415.27 183.42,21.29" fill="none" stroke-width="1.07" stroke="#EBEBEB" stroke-linejoin="round"/>
<polyline points="246.56,415.27 246.56,21.29" fill="none" stroke-width="1.07" stroke="#EBEBEB" stroke-linejoin="round"/>
<polyline points="309.70,415.27 309.70,21.29" fill="none" stroke-width="1.07" stroke="#EBEBEB" stroke-linejoin="round"/>
<polyline points="372.83,415.27 372.83,21.29" fill="none" stroke-width="1.07" stroke="#EBEBEB" stroke-linejoin="round"/>
<rect x="120.29" y="316.77" width="4.80" height="84.42" stroke-width="1.07" stroke-miterlimit="10.00" fill="#899DA4"/>
<rect x="120.29" y="222.97" width="3.79" height="84.42" stroke-width="1.07" stroke-miterlimit="10.00" fill="#C93312"/>
<rect x="120.29" y="129.16" width="45.96" height="84.42" stroke-width="1.07" stroke-miterlimit="10.00" fill="#FAEFD1"/>
<rect x="120.29" y="35.36" width="253.56" height="84.42" stroke-width="1.07" stroke-miterlimit="10.00" fill="#DC863B"/>
<g><text x="129.99" y="362.94" font-family="Arial" font-size="11.04px" textLength="12.27px" lengthAdjust="spacingAndGlyphs">19</text></g>
<g><text x="128.98" y="269.14" font-family="Arial" font-size="11.04px" textLength="12.27px" lengthAdjust="spacingAndGlyphs">15</text></g>
<g><text x="173.61" y="175.33" font-family="Arial" font-size="11.04px" textLength="18.40px" lengthAdjust="spacingAndGlyphs">182</text></g>
<g><text x="368.94" y="81.53" text-anchor="end" font-family="Arial" font-size="11.04px" textLength="24.54px" lengthAdjust="spacingAndGlyphs">1004</text></g>
</g><g clip-path="url(#c4-04c09fb5-6751-4213-9726-fc2e335a23cd)">
<g><text x="102.68" y="362.14" text-anchor="end" font-family="Arial" font-size="8.80px" fill="#4D4D4D" textLength="63.58px" lengthAdjust="spacingAndGlyphs">very_active_min</text></g>
<g><text x="102.68" y="268.33" text-anchor="end" font-family="Arial" font-size="8.80px" fill="#4D4D4D" textLength="84.13px" lengthAdjust="spacingAndGlyphs">moderate_active_min</text></g>
<g><text x="102.68" y="174.53" text-anchor="end" font-family="Arial" font-size="8.80px" fill="#4D4D4D" textLength="63.09px" lengthAdjust="spacingAndGlyphs">light_active_min</text></g>
<g><text x="102.68" y="80.73" text-anchor="end" font-family="Arial" font-size="8.80px" fill="#4D4D4D" textLength="70.93px" lengthAdjust="spacingAndGlyphs">seden_active_min</text></g>
<g><text x="120.29" y="426.50" text-anchor="middle" font-family="Arial" font-size="8.80px" fill="#4D4D4D" textLength="4.90px" lengthAdjust="spacingAndGlyphs">0</text></g>
<g><text x="183.42" y="426.50" text-anchor="middle" font-family="Arial" font-size="8.80px" fill="#4D4D4D" textLength="14.69px" lengthAdjust="spacingAndGlyphs">250</text></g>
<g><text x="246.56" y="426.50" text-anchor="middle" font-family="Arial" font-size="8.80px" fill="#4D4D4D" textLength="14.69px" lengthAdjust="spacingAndGlyphs">500</text></g>
<g><text x="309.70" y="426.50" text-anchor="middle" font-family="Arial" font-size="8.80px" fill="#4D4D4D" textLength="14.69px" lengthAdjust="spacingAndGlyphs">750</text></g>
<g><text x="372.83" y="426.50" text-anchor="middle" font-family="Arial" font-size="8.80px" fill="#4D4D4D" textLength="19.58px" lengthAdjust="spacingAndGlyphs">1000</text></g>
<g><text x="247.06" y="439.09" text-anchor="middle" font-family="Arial" font-size="11.00px" textLength="48.28px" lengthAdjust="spacingAndGlyphs">Total time</text></g>
<g><text transform="translate(13.37,218.28) rotate(-90.00)" text-anchor="middle" font-family="Arial" font-size="11.00px" textLength="58.67px" lengthAdjust="spacingAndGlyphs">Activity type</text></g>
</g><g clip-path="url(#c5-04c09fb5-6751-4213-9726-fc2e335a23cd)">
<polygon points="588.00,231.41 588.00,226.00 588.00,220.59 588.00,215.18 588.00,209.78 588.00,204.37 588.00,198.96 588.00,193.56 588.00,188.15 588.00,182.74 588.00,177.34 588.00,171.93 588.00,166.52 588.00,161.12 588.00,155.71 588.00,150.30 588.00,144.90 588.00,139.49 588.00,134.08 588.00,128.67 588.00,123.27 588.00,117.86 588.00,112.45 588.00,107.05 588.00,101.64 588.00,96.23 588.00,90.83 588.00,85.42 588.00,80.01 588.00,74.61 580.33,74.79 572.68,75.36 573.21,80.74 573.74,86.12 574.27,91.50 574.79,96.88 575.32,102.26 575.85,107.64 576.38,113.02 576.91,118.40 577.44,123.78 577.96,129.17 578.49,134.55 579.02,139.93 579.55,145.31 580.08,150.69 580.60,156.07 581.13,161.45 581.66,166.83 582.19,172.21 582.72,177.60 583.25,182.98 583.77,188.36 584.30,193.74 584.83,199.12 585.36,204.50 585.89,209.88 586.42,215.26 586.94,220.64 587.47,226.02 588.00,231.41 588.00,231.41" stroke-width="1.07" stroke-miterlimit="10.00" fill="#899DA4"/>
<polygon points="588.00,231.41 587.47,226.02 586.94,220.64 586.42,215.26 585.89,209.88 585.36,204.50 584.83,199.12 584.30,193.74 583.77,188.36 583.25,182.98 582.72,177.60 582.19,172.21 581.66,166.83 581.13,161.45 580.60,156.07 580.08,150.69 579.55,145.31 579.02,139.93 578.49,134.55 577.96,129.17 577.44,123.78 576.91,118.40 576.38,113.02 575.85,107.64 575.32,102.26 574.79,96.88 574.27,91.50 573.74,86.12 573.21,80.74 572.68,75.36 566.67,76.06 560.68,77.00 561.63,82.33 562.57,87.65 563.51,92.98 564.45,98.30 565.39,103.62 566.34,108.95 567.28,114.27 568.22,119.60 569.16,124.92 570.10,130.25 571.04,135.57 571.99,140.89 572.93,146.22 573.87,151.54 574.81,156.87 575.75,162.19 576.70,167.52 577.64,172.84 578.58,178.16 579.52,183.49 580.46,188.81 581.41,194.14 582.35,199.46 583.29,204.78 584.23,210.11 585.17,215.43 586.12,220.76 587.06,226.08 588.00,231.41 588.00,231.41" stroke-width="1.07" stroke-miterlimit="10.00" fill="#C93312"/>
<polygon points="588.00,231.41 587.06,226.08 586.12,220.76 585.17,215.43 584.23,210.11 583.29,204.78 582.35,199.46 581.41,194.14 580.46,188.81 579.52,183.49 578.58,178.16 577.64,172.84 576.70,167.52 575.75,162.19 574.81,156.87 573.87,151.54 572.93,146.22 571.99,140.89 571.04,135.57 570.10,130.25 569.16,124.92 568.22,119.60 567.28,114.27 566.34,108.95 565.39,103.62 564.45,98.30 563.51,92.98 562.57,87.65 561.63,82.33 560.68,77.00 555.34,78.04 550.04,79.27 544.78,80.68 539.57,82.27 534.43,84.04 529.34,85.99 524.33,88.11 519.40,90.41 514.55,92.88 509.78,95.51 505.11,98.31 500.54,101.26 496.08,104.38 491.72,107.64 487.49,111.06 483.37,114.62 479.38,118.32 475.52,122.16 471.80,126.13 468.21,130.23 464.77,134.45 461.48,138.78 458.34,143.23 455.36,147.78 452.54,152.44 449.88,157.19 447.39,162.02 452.23,164.42 457.08,166.81 461.93,169.20 466.78,171.59 471.63,173.99 476.48,176.38 481.33,178.77 486.18,181.16 491.02,183.56 495.87,185.95 500.72,188.34 505.57,190.73 510.42,193.13 515.27,195.52 520.12,197.91 524.97,200.30 529.81,202.70 534.66,205.09 539.51,207.48 544.36,209.87 549.21,212.27 554.06,214.66 558.91,217.05 563.76,219.44 568.60,221.84 573.45,224.23 578.30,226.62 583.15,229.01 588.00,231.41 588.00,231.41" stroke-width="1.07" stroke-miterlimit="10.00" fill="#FAEFD1"/>
<polygon points="588.00,231.41 583.15,229.01 578.30,226.62 573.45,224.23 568.60,221.84 563.76,219.44 558.91,217.05 554.06,214.66 549.21,212.27 544.36,209.87 539.51,207.48 534.66,205.09 529.81,202.70 524.97,200.30 520.12,197.91 515.27,195.52 510.42,193.13 505.57,190.73 500.72,188.34 495.87,185.95 491.02,183.56 486.18,181.16 481.33,178.77 476.48,176.38 471.63,173.99 466.78,171.59 461.93,169.20 457.08,166.81 452.23,164.42 447.39,162.02 445.11,166.85 442.99,171.74 441.05,176.71 439.27,181.74 437.67,186.83 436.24,191.97 434.99,197.15 433.91,202.37 433.01,207.63 432.29,212.92 431.76,218.22 431.40,223.55 431.22,228.88 431.23,234.21 431.41,239.54 431.78,244.86 432.33,250.17 433.05,255.45 433.96,260.71 435.05,265.93 436.31,271.11 437.75,276.25 439.36,281.33 441.15,286.36 443.10,291.32 445.22,296.22 447.51,301.03 449.96,305.77 452.57,310.42 455.33,314.98 458.25,319.45 461.32,323.81 464.54,328.07 467.90,332.21 471.39,336.24 475.03,340.14 478.79,343.92 482.68,347.57 486.69,351.08 490.82,354.46 495.06,357.70 499.41,360.78 503.86,363.72 508.41,366.51 513.05,369.13 517.78,371.60 522.59,373.91 527.48,376.05 532.43,378.03 537.45,379.83 542.53,381.47 547.66,382.93 552.83,384.21 558.05,385.32 563.30,386.25 568.58,387.00 573.89,387.57 579.21,387.96 584.54,388.17 589.87,388.19 595.20,388.04 600.52,387.70 605.83,387.19 611.12,386.49 616.38,385.62 621.61,384.56 626.80,383.33 631.95,381.92 637.04,380.34 642.08,378.59 647.05,376.66 651.96,374.57 656.79,372.31 661.54,369.89 666.21,367.31 670.79,364.57 675.27,361.68 679.65,358.63 683.92,355.44 688.09,352.11 692.13,348.63 696.06,345.02 699.86,341.28 703.53,337.42 707.07,333.42 710.47,329.32 713.73,325.09 716.85,320.76 719.81,316.33 722.62,311.80 725.28,307.17 727.78,302.46 730.11,297.66 732.28,292.79 734.29,287.85 736.12,282.84 737.79,277.77 739.28,272.65 740.59,267.48 741.73,262.27 742.69,257.03 743.47,251.75 744.08,246.45 744.50,241.13 744.74,235.80 744.80,230.47 744.67,225.14 744.37,219.81 743.89,214.50 743.22,209.21 742.38,203.94 741.35,198.71 740.15,193.51 738.78,188.36 737.22,183.26 735.50,178.21 733.61,173.22 731.54,168.30 729.31,163.46 726.92,158.69 724.37,154.01 721.66,149.41 718.79,144.92 715.77,140.52 712.61,136.22 709.30,132.04 705.85,127.97 702.26,124.03 698.54,120.20 694.70,116.51 690.73,112.94 686.64,109.52 682.44,106.23 678.12,103.09 673.71,100.10 669.19,97.26 664.58,94.58 659.89,92.05 655.10,89.69 650.25,87.49 645.31,85.46 640.32,83.59 635.26,81.90 630.15,80.38 624.99,79.03 619.78,77.86 614.54,76.87 609.27,76.05 603.97,75.42 598.66,74.97 593.33,74.70 588.00,74.61 588.00,80.01 588.00,85.42 588.00,90.83 588.00,96.23 588.00,101.64 588.00,107.05 588.00,112.45 588.00,117.86 588.00,123.27 588.00,128.67 588.00,134.08 588.00,139.49 588.00,144.90 588.00,150.30 588.00,155.71 588.00,161.12 588.00,166.52 588.00,171.93 588.00,177.34 588.00,182.74 588.00,188.15 588.00,193.56 588.00,198.96 588.00,204.37 588.00,209.78 588.00,215.18 588.00,220.59 588.00,226.00 588.00,231.41 588.00,231.41" stroke-width="1.07" stroke-miterlimit="10.00" fill="#DC863B"/>
<polygon points="565.06,153.19 600.21,153.19 600.12,153.19 600.47,153.17 600.81,153.10 601.13,152.98 601.43,152.81 601.70,152.59 601.93,152.33 602.12,152.03 602.25,151.71 602.34,151.38 602.37,151.03 602.37,151.03 602.37,139.98 602.37,139.98 602.34,139.64 602.25,139.30 602.12,138.98 601.93,138.69 601.70,138.43 601.43,138.21 601.13,138.03 600.81,137.91 600.47,137.84 600.21,137.82 565.06,137.82 565.32,137.84 564.98,137.83 564.63,137.87 564.30,137.97 563.98,138.11 563.70,138.31 563.45,138.55 563.24,138.83 563.08,139.14 562.97,139.47 562.91,139.81 562.90,139.98 562.90,151.03 562.91,150.86 562.91,151.20 562.97,151.55 563.08,151.88 563.24,152.18 563.45,152.46 563.70,152.70 563.98,152.90 564.30,153.05 564.63,153.15 564.98,153.19" stroke-width="0.53" stroke="#000000" stroke-linecap="round" stroke-linejoin="round" fill="#899DA4"/>
<g><text x="582.63" y="149.78" text-anchor="middle" font-family="Arial" font-size="11.38px" textLength="32.26px" lengthAdjust="spacingAndGlyphs">1.57%</text></g>
<polygon points="558.56,115.50 593.71,115.50 593.62,115.49 593.97,115.48 594.31,115.41 594.63,115.29 594.93,115.11 595.20,114.89 595.43,114.63 595.62,114.34 595.75,114.02 595.84,113.68 595.87,113.34 595.87,113.34 595.87,102.29 595.87,102.29 595.84,101.95 595.75,101.61 595.62,101.29 595.43,100.99 595.20,100.73 594.93,100.51 594.63,100.34 594.31,100.22 593.97,100.15 593.71,100.13 558.56,100.13 558.82,100.15 558.48,100.13 558.13,100.18 557.80,100.27 557.48,100.42 557.20,100.62 556.95,100.86 556.74,101.14 556.58,101.45 556.47,101.77 556.41,102.12 556.40,102.29 556.40,113.34 556.41,113.16 556.41,113.51 556.47,113.85 556.58,114.18 556.74,114.49 556.95,114.77 557.20,115.01 557.48,115.21 557.80,115.36 558.13,115.45 558.48,115.49" stroke-width="0.53" stroke="#000000" stroke-linecap="round" stroke-linejoin="round" fill="#C93312"/>
<g><text x="576.13" y="113.01" text-anchor="middle" font-family="Arial" font-size="11.38px" textLength="32.26px" lengthAdjust="spacingAndGlyphs">1.24%</text></g>
<polygon points="509.34,178.57 550.82,178.57 550.73,178.57 551.08,178.55 551.42,178.48 551.74,178.36 552.04,178.18 552.31,177.96 552.54,177.70 552.73,177.41 552.87,177.09 552.95,176.75 552.98,176.41 552.98,176.41 552.98,165.36 552.98,165.36 552.95,165.02 552.87,164.68 552.73,164.36 552.54,164.06 552.31,163.80 552.04,163.58 551.74,163.41 551.42,163.29 551.08,163.22 550.82,163.20 509.34,163.20 509.61,163.22 509.26,163.20 508.91,163.25 508.58,163.34 508.26,163.49 507.98,163.69 507.73,163.93 507.52,164.21 507.36,164.52 507.25,164.85 507.19,165.19 507.18,165.36 507.18,176.41 507.19,176.23 507.19,176.58 507.25,176.92 507.36,177.25 507.52,177.56 507.73,177.84 507.98,178.08 508.26,178.28 508.58,178.43 508.91,178.52 509.26,178.57" stroke-width="0.53" stroke="#000000" stroke-linecap="round" stroke-linejoin="round" fill="#FAEFD1"/>
<g><text x="530.08" y="175.15" text-anchor="middle" font-family="Arial" font-size="11.38px" textLength="38.59px" lengthAdjust="spacingAndGlyphs">15.03%</text></g>
<polygon points="645.65,252.92 687.12,252.92 687.03,252.92 687.38,252.90 687.72,252.83 688.05,252.71 688.35,252.54 688.62,252.32 688.85,252.06 689.03,251.76 689.17,251.44 689.25,251.11 689.28,250.76 689.28,250.76 689.28,239.71 689.28,239.71 689.25,239.37 689.17,239.03 689.03,238.71 688.85,238.42 688.62,238.16 688.35,237.94 688.05,237.76 687.72,237.64 687.38,237.57 687.12,237.55 645.65,237.55 645.91,237.57 645.56,237.56 645.22,237.60 644.88,237.69 644.57,237.84 644.28,238.04 644.03,238.28 643.82,238.56 643.66,238.87 643.55,239.20 643.50,239.54 643.49,239.71 643.49,250.76 643.50,250.58 643.50,250.93 643.55,251.28 643.66,251.61 643.82,251.91 644.03,252.19 644.28,252.43 644.57,252.63 644.88,252.78 645.22,252.87 645.56,252.92" stroke-width="0.53" stroke="#000000" stroke-linecap="round" stroke-linejoin="round" fill="#DC863B"/>
<g><text x="666.38" y="248.95" text-anchor="middle" font-family="Arial" font-size="11.38px" textLength="38.59px" lengthAdjust="spacingAndGlyphs">82.91%</text></g>
</g><g clip-path="url(#c6-04c09fb5-6751-4213-9726-fc2e335a23cd)">
<g><text x="392.00" y="12.21" text-anchor="middle" font-family="Arial" font-size="12.00px" textLength="266.73px" lengthAdjust="spacingAndGlyphs">Daily average activity time distribution (in minutes)</text></g>
</g>
</svg>