<svg xmlns="http://www.w3.org/2000/svg" xmlns:xlink="http://www.w3.org/1999/xlink" class="httpgd" width="508.00" height="377.00" viewBox="0 0 508.00 377.00">
<defs>
  <style type='text/css'><![CDATA[
    .httpgd line, .httpgd polyline, .httpgd polygon, .httpgd path, .httpgd rect, .httpgd circle {
      fill: none;
      stroke: #000000;
      stroke-linecap: round;
      stroke-linejoin: round;
      stroke-miterlimit: 10.00;
    }
  ]]></style>
<clipPath id="c0"><rect x="0.00" y="0.00" width="508.00" height="377.00"/></clipPath>
<clipPath id="c1"><rect x="13.99" y="17.86" width="359.14" height="359.14"/></clipPath>
<clipPath id="c2"><rect x="0.00" y="0.00" width="508.00" height="377.00"/></clipPath>
</defs>
<rect width="100%" height="100%" style="stroke: none;fill: #FFFFFF;"/>
<g clip-path="url(#c0)">
</g><g clip-path="url(#c1)">
<polygon points="193.56,197.43 193.56,192.47 193.56,187.52 193.56,182.57 193.56,177.61 193.56,172.66 193.56,167.71 193.56,162.75 193.56,157.80 193.56,152.84 193.56,147.89 193.56,142.94 193.56,137.98 193.56,133.03 193.56,128.08 193.56,123.12 193.56,118.17 193.56,113.22 193.56,108.26 193.56,103.31 193.56,98.35 193.56,93.40 193.56,88.45 193.56,83.49 193.56,78.54 193.56,73.59 193.56,68.63 193.56,63.68 193.56,58.72 193.56,53.77 188.63,53.86 183.71,54.11 178.79,54.53 173.90,55.12 169.03,55.88 164.18,56.81 159.38,57.90 154.61,59.15 149.89,60.57 145.22,62.15 140.60,63.89 136.05,65.78 131.57,67.83 127.16,70.04 122.83,72.39 118.58,74.89 114.42,77.54 110.35,80.32 106.38,83.25 102.51,86.30 98.75,89.49 95.11,92.81 91.58,96.25 88.16,99.81 84.88,103.48 81.72,107.27 78.69,111.16 75.80,115.15 73.04,119.24 70.43,123.42 67.96,127.69 65.64,132.04 63.48,136.47 61.46,140.97 59.60,145.53 57.90,150.16 56.36,154.84 54.98,159.58 53.76,164.35 52.71,169.17 51.82,174.02 51.10,178.90 50.55,183.80 50.17,188.71 49.95,193.64 49.91,198.57 50.03,203.49 50.32,208.42 50.78,213.32 51.41,218.21 52.21,223.08 53.17,227.91 54.30,232.71 55.59,237.47 57.05,242.18 58.67,246.84 60.44,251.44 62.37,255.97 64.46,260.44 66.70,264.83 69.08,269.15 71.62,273.38 74.30,277.52 77.11,281.56 80.07,285.51 83.16,289.35 86.38,293.08 89.72,296.70 93.30,293.28 96.88,289.86 100.46,286.43 104.05,283.01 107.63,279.59 111.21,276.16 114.79,272.74 118.37,269.32 121.95,265.89 125.53,262.47 129.11,259.05 132.69,255.62 136.27,252.20 139.85,248.78 143.43,245.35 147.01,241.93 150.59,238.51 154.17,235.08 157.75,231.66 161.33,228.24 164.91,224.81 168.49,221.39 172.07,217.97 175.66,214.54 179.24,211.12 182.82,207.70 186.40,204.27 189.98,200.85 193.56,197.43 193.56,197.43" style="stroke-width: 1.07;stroke: none;stroke-linecap: butt;stroke-linejoin: miter;fill: #899DA4;" />
<polygon points="193.56,197.43 189.98,200.85 186.40,204.27 182.82,207.70 179.24,211.12 175.66,214.54 172.07,217.97 168.49,221.39 164.91,224.81 161.33,228.24 157.75,231.66 154.17,235.08 150.59,238.51 147.01,241.93 143.43,245.35 139.85,248.78 136.27,252.20 132.69,255.62 129.11,259.05 125.53,262.47 121.95,265.89 118.37,269.32 114.79,272.74 111.21,276.16 107.63,279.59 104.05,283.01 100.46,286.43 96.88,289.86 93.30,293.28 89.72,296.70 93.17,300.19 96.73,303.55 100.40,306.79 104.18,309.90 108.07,312.88 112.05,315.72 116.13,318.43 120.30,321.00 124.55,323.43 128.88,325.70 133.29,327.83 137.77,329.81 142.32,331.64 146.92,333.30 151.58,334.82 156.28,336.17 161.03,337.36 165.82,338.38 170.64,339.25 175.49,339.94 180.36,340.48 185.24,340.84 190.13,341.04 195.03,341.08 199.92,340.94 204.81,340.64 209.68,340.18 214.54,339.55 219.37,338.75 224.17,337.79 228.94,336.66 233.66,335.37 238.34,333.93 242.96,332.32 247.53,330.56 252.04,328.64 256.48,326.57 260.84,324.36 265.13,321.99 269.33,319.48 273.45,316.82 277.47,314.03 281.39,311.10 285.22,308.05 288.93,304.86 292.54,301.54 296.03,298.11 299.40,294.56 302.65,290.90 305.77,287.12 308.76,283.25 311.62,279.27 314.34,275.20 316.92,271.04 319.36,266.79 321.65,262.47 323.79,258.06 325.78,253.59 327.62,249.05 329.30,244.45 330.83,239.80 332.19,235.10 333.39,230.35 334.43,225.56 335.31,220.75 336.02,215.90 336.57,211.04 336.95,206.16 337.16,201.26 337.21,196.37 337.09,191.47 336.81,186.58 336.35,181.71 335.73,176.85 334.95,172.02 334.00,167.21 332.89,162.45 331.62,157.72 330.18,153.04 325.47,154.57 320.76,156.10 316.05,157.63 311.34,159.16 306.63,160.69 301.92,162.22 297.21,163.75 292.49,165.28 287.78,166.81 283.07,168.34 278.36,169.87 273.65,171.40 268.94,172.94 264.23,174.47 259.52,176.00 254.80,177.53 250.09,179.06 245.38,180.59 240.67,182.12 235.96,183.65 231.25,185.18 226.54,186.71 221.83,188.24 217.11,189.77 212.40,191.31 207.69,192.84 202.98,194.37 198.27,195.90 193.56,197.43 193.56,197.43" style="stroke-width: 1.07;stroke: none;stroke-linecap: butt;stroke-linejoin: miter;fill: #C93312;" />
<polygon points="193.56,197.43 198.27,195.90 202.98,194.37 207.69,192.84 212.40,191.31 217.11,189.77 221.83,188.24 226.54,186.71 231.25,185.18 235.96,183.65 240.67,182.12 245.38,180.59 250.09,179.06 254.80,177.53 259.52,176.00 264.23,174.47 268.94,172.94 273.65,171.40 278.36,169.87 283.07,168.34 287.78,166.81 292.49,165.28 297.21,163.75 301.92,162.22 306.63,160.69 311.34,159.16 316.05,157.63 320.76,156.10 325.47,154.57 330.18,153.04 328.60,148.42 326.86,143.86 324.96,139.37 322.91,134.94 320.72,130.58 318.37,126.30 315.89,122.11 313.26,118.00 310.49,113.98 307.59,110.06 304.56,106.23 301.40,102.52 298.11,98.91 294.71,95.42 291.18,92.04 287.55,88.79 283.81,85.66 279.96,82.66 276.01,79.79 271.97,77.06 267.84,74.46 263.62,72.01 259.32,69.71 254.95,67.55 250.50,65.54 245.99,63.68 241.42,61.98 236.79,60.43 232.11,59.04 227.39,57.81 222.63,56.74 217.84,55.84 213.01,55.09 208.17,54.52 203.31,54.10 198.44,53.85 193.56,53.77 193.56,58.72 193.56,63.68 193.56,68.63 193.56,73.59 193.56,78.54 193.56,83.49 193.56,88.45 193.56,93.40 193.56,98.35 193.56,103.31 193.56,108.26 193.56,113.22 193.56,118.17 193.56,123.12 193.56,128.08 193.56,133.03 193.56,137.98 193.56,142.94 193.56,147.89 193.56,152.84 193.56,157.80 193.56,162.75 193.56,167.71 193.56,172.66 193.56,177.61 193.56,182.57 193.56,187.52 193.56,192.47 193.56,197.43 193.56,197.43" style="stroke-width: 1.07;stroke: none;stroke-linecap: butt;stroke-linejoin: miter;fill: #FAEFD1;" />
<line x1="243.90" y1="136.09" x2="236.81" y2="138.91" style="stroke-width: 1.07;"/>
<polygon points="102.25,193.25 124.10,193.25 124.02,193.25 124.36,193.23 124.71,193.17 125.03,193.04 125.33,192.87 125.60,192.65 125.83,192.39 126.02,192.09 126.15,191.77 126.24,191.44 126.26,191.09 126.26,191.09 126.26,175.96 126.26,175.96 126.24,175.62 126.15,175.28 126.02,174.96 125.83,174.67 125.60,174.41 125.33,174.19 125.03,174.01 124.71,173.89 124.36,173.82 124.10,173.80 102.25,173.80 102.51,173.82 102.16,173.81 101.81,173.85 101.48,173.94 101.17,174.09 100.88,174.29 100.63,174.53 100.42,174.81 100.26,175.12 100.15,175.45 100.09,175.79 100.09,175.96 100.09,191.09 100.09,190.92 100.09,191.26 100.15,191.61 100.26,191.94 100.42,192.24 100.63,192.52 100.88,192.76 101.17,192.96 101.48,193.11 101.81,193.21 102.16,193.25" style="stroke-width: 0.53;fill: #899DA4;" />
<g><text x="113.17" y="189.65" text-anchor="middle" style="font-family: Arial;font-size: 17.07px;" textLength="18.98px" lengthAdjust="spacingAndGlyphs">13</text></g>
<polygon points="205.17,283.14 227.03,283.14 226.94,283.14 227.29,283.13 227.63,283.06 227.96,282.93 228.26,282.76 228.53,282.54 228.76,282.28 228.94,281.99 229.08,281.67 229.16,281.33 229.19,280.98 229.19,280.98 229.19,265.85 229.19,265.85 229.16,265.51 229.08,265.17 228.94,264.85 228.76,264.56 228.53,264.30 228.26,264.08 227.96,263.90 227.63,263.78 227.29,263.71 227.03,263.69 205.17,263.69 205.43,263.71 205.08,263.70 204.74,263.74 204.41,263.84 204.09,263.98 203.81,264.18 203.55,264.42 203.35,264.70 203.18,265.01 203.07,265.34 203.02,265.68 203.01,265.85 203.01,280.98 203.02,280.81 203.02,281.16 203.07,281.50 203.18,281.83 203.35,282.14 203.55,282.41 203.81,282.66 204.09,282.85 204.41,283.00 204.74,283.10 205.08,283.14" style="stroke-width: 0.53;fill: #C93312;" />
<g><text x="216.10" y="279.54" text-anchor="middle" style="font-family: Arial;font-size: 17.07px;" textLength="18.98px" lengthAdjust="spacingAndGlyphs">15</text></g>
<polygon points="242.54,136.09 254.91,136.09 254.83,136.09 255.17,136.07 255.51,136.00 255.84,135.88 256.14,135.71 256.41,135.49 256.64,135.23 256.82,134.93 256.96,134.61 257.04,134.28 257.07,133.93 257.07,133.93 257.07,118.80 257.07,118.80 257.04,118.46 256.96,118.12 256.82,117.80 256.64,117.51 256.41,117.24 256.14,117.03 255.84,116.85 255.51,116.73 255.17,116.66 254.91,116.64 242.54,116.64 242.80,116.66 242.46,116.64 242.11,116.69 241.78,116.78 241.46,116.93 241.18,117.13 240.93,117.37 240.72,117.65 240.56,117.96 240.45,118.29 240.39,118.63 240.38,118.80 240.38,133.93 240.39,133.76 240.39,134.10 240.45,134.45 240.56,134.78 240.72,135.08 240.93,135.36 241.18,135.60 241.46,135.80 241.78,135.95 242.11,136.05 242.46,136.09" style="stroke-width: 0.53;fill: #FAEFD1;" />
<g><text x="248.73" y="132.49" text-anchor="middle" style="font-family: Arial;font-size: 17.07px;" textLength="9.49px" lengthAdjust="spacingAndGlyphs">7</text></g>
</g><g clip-path="url(#c2)">
<g><text x="378.80" y="172.71" style="font-family: Arial;font-size: 11.00px;" textLength="58.10px" lengthAdjust="spacingAndGlyphs">Steps taken</text></g>
<rect x="379.51" y="180.12" width="15.86" height="15.86" style="stroke-width: 1.07;stroke: none;stroke-linecap: butt;stroke-linejoin: miter;fill: #899DA4;"/>
<rect x="379.51" y="197.40" width="15.86" height="15.86" style="stroke-width: 1.07;stroke: none;stroke-linecap: butt;stroke-linejoin: miter;fill: #C93312;"/>
<rect x="379.51" y="214.68" width="15.86" height="15.86" style="stroke-width: 1.07;stroke: none;stroke-linecap: butt;stroke-linejoin: miter;fill: #FAEFD1;"/>
<g><text x="401.56" y="191.20" style="font-family: Arial;font-size: 8.80px;" textLength="53.32px" lengthAdjust="spacingAndGlyphs">0-5,000 steps</text></g>
<g><text x="401.56" y="208.48" style="font-family: Arial;font-size: 8.80px;" textLength="75.35px" lengthAdjust="spacingAndGlyphs">5,000-10,000 steps</text></g>
<g><text x="401.56" y="225.76" style="font-family: Arial;font-size: 8.80px;" textLength="92.46px" lengthAdjust="spacingAndGlyphs">More than 10,000 steps</text></g>
<g><text x="13.99" y="14.94" style="font-family: Arial;font-size: 13.20px;" textLength="183.30px" lengthAdjust="spacingAndGlyphs">Daily average steps distribution</text></g>
</g>
</svg>