<svg width="648" height="1071" xmlns="http://www.w3.org/2000/svg" xmlns:xlink="http://www.w3.org/1999/xlink" xml:space="preserve" overflow="hidden"><defs><clipPath id="clip0"><rect x="1885" y="346" width="648" height="1071"/></clipPath><clipPath id="clip1"><rect x="1886" y="347" width="647" height="1070"/></clipPath><clipPath id="clip2"><rect x="1886" y="347" width="647" height="1071"/></clipPath><clipPath id="clip3"><rect x="1886" y="347" width="647" height="1071"/></clipPath><clipPath id="clip4"><rect x="1886" y="347" width="647" height="1071"/></clipPath><clipPath id="clip5"><rect x="1955" y="380" width="570" height="949"/></clipPath><clipPath id="clip6"><rect x="1886" y="347" width="647" height="1071"/></clipPath></defs><g clip-path="url(#clip0)" transform="translate(-1885 -346)"><g clip-path="url(#clip1)"><g clip-path="url(#clip2)"><g clip-path="url(#clip3)"><path d="M0 0 647 0 647 1069.02 0 1069.02Z" fill="#FFFFFF" fill-rule="nonzero" fill-opacity="1" transform="matrix(1 0 0 1.00091 1886 347)"/><g clip-path="url(#clip4)"><path d="M0 0 647 0 647 1069.02 0 1069.02Z" stroke="#FFFFFF" stroke-width="1.66017" stroke-linecap="round" stroke-linejoin="round" stroke-miterlimit="10" stroke-opacity="1" fill="#FFFFFF" fill-rule="nonzero" fill-opacity="1" transform="matrix(1 0 0 1.00091 1886 347)"/></g><g clip-path="url(#clip5)"><path d="M69.3081 33.0172 638.497 33.0172 638.497 980.756 69.3081 980.756Z" fill="#FFFFFF" fill-rule="nonzero" fill-opacity="1" transform="matrix(1 0 0 1.00091 1886 347)"/><path d="M77.2056 937.685 156.257 937.685 156.257 976.846 77.2056 976.846Z" fill="#F6FAF8" fill-rule="nonzero" fill-opacity="1" transform="matrix(1 0 0 1.00091 1886 347)"/><path d="M77.2056 898.523 156.257 898.523 156.257 937.685 77.2056 937.685Z" fill="#FDFEFE" fill-rule="nonzero" fill-opacity="1" transform="matrix(1 0 0 1.00091 1886 347)"/><path d="M77.2056 859.362 156.257 859.362 156.257 898.523 77.2056 898.523Z" fill="#FEFFFE" fill-rule="nonzero" fill-opacity="1" transform="matrix(1 0 0 1.00091 1886 347)"/><path d="M77.2056 820.201 156.257 820.201 156.257 859.362 77.2056 859.362Z" fill="#FFFFFF" fill-rule="nonzero" fill-opacity="1" transform="matrix(1 0 0 1.00091 1886 347)"/><path d="M77.2056 781.024 156.257 781.024 156.257 820.185 77.2056 820.185Z" fill="#FCFDFD" fill-rule="nonzero" fill-opacity="1" transform="matrix(1 0 0 1.00091 1886 347)"/><path d="M77.2056 741.862 156.257 741.862 156.257 781.024 77.2056 781.024Z" fill="#EEF5F2" fill-rule="nonzero" fill-opacity="1" transform="matrix(1 0 0 1.00091 1886 347)"/><path d="M77.2056 702.701 156.257 702.701 156.257 741.862 77.2056 741.862Z" fill="#BEDACE" fill-rule="nonzero" fill-opacity="1" transform="matrix(1 0 0 1.00091 1886 347)"/><path d="M77.2056 663.54 156.257 663.54 156.257 702.701 77.2056 702.701Z" fill="#9BC6B4" fill-rule="nonzero" fill-opacity="1" transform="matrix(1 0 0 1.00091 1886 347)"/><path d="M77.2056 624.378 156.257 624.378 156.257 663.54 77.2056 663.54Z" fill="#8CBDA9" fill-rule="nonzero" fill-opacity="1" transform="matrix(1 0 0 1.00091 1886 347)"/><path d="M77.2056 585.217 156.257 585.217 156.257 624.378 77.2056 624.378Z" fill="#8FBFAB" fill-rule="nonzero" fill-opacity="1" transform="matrix(1 0 0 1.00091 1886 347)"/><path d="M77.2056 546.056 156.257 546.056 156.257 585.217 77.2056 585.217Z" fill="#6AAA91" fill-rule="nonzero" fill-opacity="1" transform="matrix(1 0 0 1.00091 1886 347)"/><path d="M77.2056 506.894 156.257 506.894 156.257 546.056 77.2056 546.056Z" fill="#81B7A1" fill-rule="nonzero" fill-opacity="1" transform="matrix(1 0 0 1.00091 1886 347)"/><path d="M77.2056 467.733 156.257 467.733 156.257 506.894 77.2056 506.894Z" fill="#5EA489" fill-rule="nonzero" fill-opacity="1" transform="matrix(1 0 0 1.00091 1886 347)"/><path d="M77.2056 428.572 156.257 428.572 156.257 467.733 77.2056 467.733Z" fill="#73AF97" fill-rule="nonzero" fill-opacity="1" transform="matrix(1 0 0 1.00091 1886 347)"/><path d="M77.2056 389.41 156.257 389.41 156.257 428.572 77.2056 428.572Z" fill="#9FC8B7" fill-rule="nonzero" fill-opacity="1" transform="matrix(1 0 0 1.00091 1886 347)"/><path d="M77.2056 350.233 156.257 350.233 156.257 389.395 77.2056 389.395Z" fill="#8CBDA9" fill-rule="nonzero" fill-opacity="1" transform="matrix(1 0 0 1.00091 1886 347)"/><path d="M77.2056 311.072 156.257 311.072 156.257 350.233 77.2056 350.233Z" fill="#66A88E" fill-rule="nonzero" fill-opacity="1" transform="matrix(1 0 0 1.00091 1886 347)"/><path d="M77.2056 271.911 156.257 271.911 156.257 311.072 77.2056 311.072Z" fill="#7DB59E" fill-rule="nonzero" fill-opacity="1" transform="matrix(1 0 0 1.00091 1886 347)"/><path d="M77.2056 232.749 156.257 232.749 156.257 271.911 77.2056 271.911Z" fill="#4D9B7F" fill-rule="nonzero" fill-opacity="1" transform="matrix(1 0 0 1.00091 1886 347)"/><path d="M77.2056 193.588 156.257 193.588 156.257 232.749 77.2056 232.749Z" fill="#59A186" fill-rule="nonzero" fill-opacity="1" transform="matrix(1 0 0 1.00091 1886 347)"/><path d="M77.2056 154.427 156.257 154.427 156.257 193.588 77.2056 193.588Z" fill="#83B8A3" fill-rule="nonzero" fill-opacity="1" transform="matrix(1 0 0 1.00091 1886 347)"/><path d="M77.2056 115.265 156.257 115.265 156.257 154.427 77.2056 154.427Z" fill="#C0DBCF" fill-rule="nonzero" fill-opacity="1" transform="matrix(1 0 0 1.00091 1886 347)"/><path d="M77.2056 76.104 156.257 76.104 156.257 115.265 77.2056 115.265Z" fill="#DDECE5" fill-rule="nonzero" fill-opacity="1" transform="matrix(1 0 0 1.00091 1886 347)"/><path d="M77.2056 36.9426 156.257 36.9426 156.257 76.104 77.2056 76.104Z" fill="#F5F9F7" fill-rule="nonzero" fill-opacity="1" transform="matrix(1 0 0 1.00091 1886 347)"/><path d="M156.273 937.685 235.325 937.685 235.325 976.846 156.273 976.846Z" fill="#FBFDFC" fill-rule="nonzero" fill-opacity="1" transform="matrix(1 0 0 1.00091 1886 347)"/><path d="M156.273 898.523 235.325 898.523 235.325 937.685 156.273 937.685Z" fill="#FCFDFD" fill-rule="nonzero" fill-opacity="1" transform="matrix(1 0 0 1.00091 1886 347)"/><path d="M156.273 859.362 235.325 859.362 235.325 898.523 156.273 898.523Z" fill="#FEFFFE" fill-rule="nonzero" fill-opacity="1" transform="matrix(1 0 0 1.00091 1886 347)"/><path d="M156.273 820.201 235.325 820.201 235.325 859.362 156.273 859.362Z" fill="#FBFDFC" fill-rule="nonzero" fill-opacity="1" transform="matrix(1 0 0 1.00091 1886 347)"/><path d="M156.273 781.024 235.325 781.024 235.325 820.185 156.273 820.185Z" fill="#FDFEFD" fill-rule="nonzero" fill-opacity="1" transform="matrix(1 0 0 1.00091 1886 347)"/><path d="M156.273 741.862 235.325 741.862 235.325 781.024 156.273 781.024Z" fill="#ECF4F1" fill-rule="nonzero" fill-opacity="1" transform="matrix(1 0 0 1.00091 1886 347)"/><path d="M156.273 702.701 235.325 702.701 235.325 741.862 156.273 741.862Z" fill="#B8D6C9" fill-rule="nonzero" fill-opacity="1" transform="matrix(1 0 0 1.00091 1886 347)"/><path d="M156.273 663.54 235.325 663.54 235.325 702.701 156.273 702.701Z" fill="#B0D1C3" fill-rule="nonzero" fill-opacity="1" transform="matrix(1 0 0 1.00091 1886 347)"/><path d="M156.273 624.378 235.325 624.378 235.325 663.54 156.273 663.54Z" fill="#A0C8B7" fill-rule="nonzero" fill-opacity="1" transform="matrix(1 0 0 1.00091 1886 347)"/><path d="M156.273 585.217 235.325 585.217 235.325 624.378 156.273 624.378Z" fill="#94C2AF" fill-rule="nonzero" fill-opacity="1" transform="matrix(1 0 0 1.00091 1886 347)"/><path d="M156.273 546.056 235.325 546.056 235.325 585.217 156.273 585.217Z" fill="#70AD95" fill-rule="nonzero" fill-opacity="1" transform="matrix(1 0 0 1.00091 1886 347)"/><path d="M156.273 506.894 235.325 506.894 235.325 546.056 156.273 546.056Z" fill="#75B099" fill-rule="nonzero" fill-opacity="1" transform="matrix(1 0 0 1.00091 1886 347)"/><path d="M156.273 467.733 235.325 467.733 235.325 506.894 156.273 506.894Z" fill="#569F84" fill-rule="nonzero" fill-opacity="1" transform="matrix(1 0 0 1.00091 1886 347)"/><path d="M156.273 428.572 235.325 428.572 235.325 467.733 156.273 467.733Z" fill="#7AB39C" fill-rule="nonzero" fill-opacity="1" transform="matrix(1 0 0 1.00091 1886 347)"/><path d="M156.273 389.41 235.325 389.41 235.325 428.572 156.273 428.572Z" fill="#9FC8B7" fill-rule="nonzero" fill-opacity="1" transform="matrix(1 0 0 1.00091 1886 347)"/><path d="M156.273 350.233 235.325 350.233 235.325 389.395 156.273 389.395Z" fill="#A9CDBE" fill-rule="nonzero" fill-opacity="1" transform="matrix(1 0 0 1.00091 1886 347)"/><path d="M156.273 311.072 235.325 311.072 235.325 350.233 156.273 350.233Z" fill="#8FBFAB" fill-rule="nonzero" fill-opacity="1" transform="matrix(1 0 0 1.00091 1886 347)"/><path d="M156.273 271.911 235.325 271.911 235.325 311.072 156.273 311.072Z" fill="#80B7A0" fill-rule="nonzero" fill-opacity="1" transform="matrix(1 0 0 1.00091 1886 347)"/><path d="M156.273 232.749 235.325 232.749 235.325 271.911 156.273 271.911Z" fill="#509C80" fill-rule="nonzero" fill-opacity="1" transform="matrix(1 0 0 1.00091 1886 347)"/><path d="M156.273 193.588 235.325 193.588 235.325 232.749 156.273 232.749Z" fill="#5BA287" fill-rule="nonzero" fill-opacity="1" transform="matrix(1 0 0 1.00091 1886 347)"/><path d="M156.273 154.427 235.325 154.427 235.325 193.588 156.273 193.588Z" fill="#9DC7B5" fill-rule="nonzero" fill-opacity="1" transform="matrix(1 0 0 1.00091 1886 347)"/><path d="M156.273 115.265 235.325 115.265 235.325 154.427 156.273 154.427Z" fill="#ABCFC0" fill-rule="nonzero" fill-opacity="1" transform="matrix(1 0 0 1.00091 1886 347)"/><path d="M156.273 76.104 235.325 76.104 235.325 115.265 156.273 115.265Z" fill="#C4DDD2" fill-rule="nonzero" fill-opacity="1" transform="matrix(1 0 0 1.00091 1886 347)"/><path d="M156.273 36.9426 235.325 36.9426 235.325 76.104 156.273 76.104Z" fill="#ECF4F1" fill-rule="nonzero" fill-opacity="1" transform="matrix(1 0 0 1.00091 1886 347)"/><path d="M235.325 937.685 314.377 937.685 314.377 976.846 235.325 976.846Z" fill="#F1F7F5" fill-rule="nonzero" fill-opacity="1" transform="matrix(1 0 0 1.00091 1886 347)"/><path d="M235.325 898.523 314.377 898.523 314.377 937.685 235.325 937.685Z" fill="#FBFDFC" fill-rule="nonzero" fill-opacity="1" transform="matrix(1 0 0 1.00091 1886 347)"/><path d="M235.325 859.362 314.377 859.362 314.377 898.523 235.325 898.523Z" fill="#FBFDFC" fill-rule="nonzero" fill-opacity="1" transform="matrix(1 0 0 1.00091 1886 347)"/><path d="M235.325 820.201 314.377 820.201 314.377 859.362 235.325 859.362Z" fill="#FEFEFE" fill-rule="nonzero" fill-opacity="1" transform="matrix(1 0 0 1.00091 1886 347)"/><path d="M235.325 781.024 314.377 781.024 314.377 820.185 235.325 820.185Z" fill="#FAFCFB" fill-rule="nonzero" fill-opacity="1" transform="matrix(1 0 0 1.00091 1886 347)"/><path d="M235.325 741.862 314.377 741.862 314.377 781.024 235.325 781.024Z" fill="#F4F9F7" fill-rule="nonzero" fill-opacity="1" transform="matrix(1 0 0 1.00091 1886 347)"/><path d="M235.325 702.701 314.377 702.701 314.377 741.862 235.325 741.862Z" fill="#C1DBD0" fill-rule="nonzero" fill-opacity="1" transform="matrix(1 0 0 1.00091 1886 347)"/><path d="M235.325 663.54 314.377 663.54 314.377 702.701 235.325 702.701Z" fill="#AFD1C3" fill-rule="nonzero" fill-opacity="1" transform="matrix(1 0 0 1.00091 1886 347)"/><path d="M235.325 624.378 314.377 624.378 314.377 663.54 235.325 663.54Z" fill="#92C1AD" fill-rule="nonzero" fill-opacity="1" transform="matrix(1 0 0 1.00091 1886 347)"/><path d="M235.325 585.217 314.377 585.217 314.377 624.378 235.325 624.378Z" fill="#8DBEAA" fill-rule="nonzero" fill-opacity="1" transform="matrix(1 0 0 1.00091 1886 347)"/><path d="M235.325 546.056 314.377 546.056 314.377 585.217 235.325 585.217Z" fill="#81B7A1" fill-rule="nonzero" fill-opacity="1" transform="matrix(1 0 0 1.00091 1886 347)"/><path d="M235.325 506.894 314.377 506.894 314.377 546.056 235.325 546.056Z" fill="#5EA389" fill-rule="nonzero" fill-opacity="1" transform="matrix(1 0 0 1.00091 1886 347)"/><path d="M235.325 467.733 314.377 467.733 314.377 506.894 235.325 506.894Z" fill="#67A98F" fill-rule="nonzero" fill-opacity="1" transform="matrix(1 0 0 1.00091 1886 347)"/><path d="M235.325 428.572 314.377 428.572 314.377 467.733 235.325 467.733Z" fill="#65A78E" fill-rule="nonzero" fill-opacity="1" transform="matrix(1 0 0 1.00091 1886 347)"/><path d="M235.325 389.41 314.377 389.41 314.377 428.572 235.325 428.572Z" fill="#77B19A" fill-rule="nonzero" fill-opacity="1" transform="matrix(1 0 0 1.00091 1886 347)"/><path d="M235.325 350.233 314.377 350.233 314.377 389.395 235.325 389.395Z" fill="#93C1AE" fill-rule="nonzero" fill-opacity="1" transform="matrix(1 0 0 1.00091 1886 347)"/><path d="M235.325 311.072 314.377 311.072 314.377 350.233 235.325 350.233Z" fill="#7BB49D" fill-rule="nonzero" fill-opacity="1" transform="matrix(1 0 0 1.00091 1886 347)"/><path d="M235.325 271.911 314.377 271.911 314.377 311.072 235.325 311.072Z" fill="#62A68C" fill-rule="nonzero" fill-opacity="1" transform="matrix(1 0 0 1.00091 1886 347)"/><path d="M235.325 232.749 314.377 232.749 314.377 271.911 235.325 271.911Z" fill="#68A990" fill-rule="nonzero" fill-opacity="1" transform="matrix(1 0 0 1.00091 1886 347)"/><path d="M235.325 193.588 314.377 193.588 314.377 232.749 235.325 232.749Z" fill="#74B098" fill-rule="nonzero" fill-opacity="1" transform="matrix(1 0 0 1.00091 1886 347)"/><path d="M235.325 154.427 314.377 154.427 314.377 193.588 235.325 193.588Z" fill="#ABCFBF" fill-rule="nonzero" fill-opacity="1" transform="matrix(1 0 0 1.00091 1886 347)"/><path d="M235.325 115.265 314.377 115.265 314.377 154.427 235.325 154.427Z" fill="#C0DBCF" fill-rule="nonzero" fill-opacity="1" transform="matrix(1 0 0 1.00091 1886 347)"/><path d="M235.325 76.104 314.377 76.104 314.377 115.265 235.325 115.265Z" fill="#C4DDD2" fill-rule="nonzero" fill-opacity="1" transform="matrix(1 0 0 1.00091 1886 347)"/><path d="M235.325 36.9426 314.377 36.9426 314.377 76.104 235.325 76.104Z" fill="#E9F3EE" fill-rule="nonzero" fill-opacity="1" transform="matrix(1 0 0 1.00091 1886 347)"/><path d="M314.377 937.685 393.429 937.685 393.429 976.846 314.377 976.846Z" fill="#F6FAF8" fill-rule="nonzero" fill-opacity="1" transform="matrix(1 0 0 1.00091 1886 347)"/><path d="M314.377 898.523 393.429 898.523 393.429 937.685 314.377 937.685Z" fill="#FCFDFD" fill-rule="nonzero" fill-opacity="1" transform="matrix(1 0 0 1.00091 1886 347)"/><path d="M314.377 859.362 393.429 859.362 393.429 898.523 314.377 898.523Z" fill="#FDFEFD" fill-rule="nonzero" fill-opacity="1" transform="matrix(1 0 0 1.00091 1886 347)"/><path d="M314.377 820.201 393.429 820.201 393.429 859.362 314.377 859.362Z" fill="#FDFEFE" fill-rule="nonzero" fill-opacity="1" transform="matrix(1 0 0 1.00091 1886 347)"/><path d="M314.377 781.024 393.429 781.024 393.429 820.185 314.377 820.185Z" fill="#FDFEFD" fill-rule="nonzero" fill-opacity="1" transform="matrix(1 0 0 1.00091 1886 347)"/><path d="M314.377 741.862 393.429 741.862 393.429 781.024 314.377 781.024Z" fill="#F0F7F4" fill-rule="nonzero" fill-opacity="1" transform="matrix(1 0 0 1.00091 1886 347)"/><path d="M314.377 702.701 393.429 702.701 393.429 741.862 314.377 741.862Z" fill="#AFD1C2" fill-rule="nonzero" fill-opacity="1" transform="matrix(1 0 0 1.00091 1886 347)"/><path d="M314.377 663.54 393.429 663.54 393.429 702.701 314.377 702.701Z" fill="#99C5B2" fill-rule="nonzero" fill-opacity="1" transform="matrix(1 0 0 1.00091 1886 347)"/><path d="M314.377 624.378 393.429 624.378 393.429 663.54 314.377 663.54Z" fill="#A1C9B8" fill-rule="nonzero" fill-opacity="1" transform="matrix(1 0 0 1.00091 1886 347)"/><path d="M314.377 585.217 393.429 585.217 393.429 624.378 314.377 624.378Z" fill="#74B098" fill-rule="nonzero" fill-opacity="1" transform="matrix(1 0 0 1.00091 1886 347)"/><path d="M314.377 546.056 393.429 546.056 393.429 585.217 314.377 585.217Z" fill="#58A185" fill-rule="nonzero" fill-opacity="1" transform="matrix(1 0 0 1.00091 1886 347)"/><path d="M314.377 506.894 393.429 506.894 393.429 546.056 314.377 546.056Z" fill="#81B7A1" fill-rule="nonzero" fill-opacity="1" transform="matrix(1 0 0 1.00091 1886 347)"/><path d="M314.377 467.733 393.429 467.733 393.429 506.894 314.377 506.894Z" fill="#66A88F" fill-rule="nonzero" fill-opacity="1" transform="matrix(1 0 0 1.00091 1886 347)"/><path d="M314.377 428.572 393.429 428.572 393.429 467.733 314.377 467.733Z" fill="#549E83" fill-rule="nonzero" fill-opacity="1" transform="matrix(1 0 0 1.00091 1886 347)"/><path d="M314.377 389.41 393.429 389.41 393.429 428.572 314.377 428.572Z" fill="#76B199" fill-rule="nonzero" fill-opacity="1" transform="matrix(1 0 0 1.00091 1886 347)"/><path d="M314.377 350.233 393.429 350.233 393.429 389.395 314.377 389.395Z" fill="#7CB49D" fill-rule="nonzero" fill-opacity="1" transform="matrix(1 0 0 1.00091 1886 347)"/><path d="M314.377 311.072 393.429 311.072 393.429 350.233 314.377 350.233Z" fill="#84B8A3" fill-rule="nonzero" fill-opacity="1" transform="matrix(1 0 0 1.00091 1886 347)"/><path d="M314.377 271.911 393.429 271.911 393.429 311.072 314.377 311.072Z" fill="#6EAC94" fill-rule="nonzero" fill-opacity="1" transform="matrix(1 0 0 1.00091 1886 347)"/><path d="M314.377 232.749 393.429 232.749 393.429 271.911 314.377 271.911Z" fill="#92C1AD" fill-rule="nonzero" fill-opacity="1" transform="matrix(1 0 0 1.00091 1886 347)"/><path d="M314.377 193.588 393.429 193.588 393.429 232.749 314.377 232.749Z" fill="#62A68C" fill-rule="nonzero" fill-opacity="1" transform="matrix(1 0 0 1.00091 1886 347)"/><path d="M314.377 154.427 393.429 154.427 393.429 193.588 314.377 193.588Z" fill="#87BAA5" fill-rule="nonzero" fill-opacity="1" transform="matrix(1 0 0 1.00091 1886 347)"/><path d="M314.377 115.265 393.429 115.265 393.429 154.427 314.377 154.427Z" fill="#B1D2C4" fill-rule="nonzero" fill-opacity="1" transform="matrix(1 0 0 1.00091 1886 347)"/><path d="M314.377 76.104 393.429 76.104 393.429 115.265 314.377 115.265Z" fill="#DAEAE3" fill-rule="nonzero" fill-opacity="1" transform="matrix(1 0 0 1.00091 1886 347)"/><path d="M314.377 36.9426 393.429 36.9426 393.429 76.104 314.377 76.104Z" fill="#EEF5F2" fill-rule="nonzero" fill-opacity="1" transform="matrix(1 0 0 1.00091 1886 347)"/><path d="M393.429 937.685 472.481 937.685 472.481 976.846 393.429 976.846Z" fill="#F1F7F5" fill-rule="nonzero" fill-opacity="1" transform="matrix(1 0 0 1.00091 1886 347)"/><path d="M393.429 898.523 472.481 898.523 472.481 937.685 393.429 937.685Z" fill="#F9FCFB" fill-rule="nonzero" fill-opacity="1" transform="matrix(1 0 0 1.00091 1886 347)"/><path d="M393.429 859.362 472.481 859.362 472.481 898.523 393.429 898.523Z" fill="#FDFEFD" fill-rule="nonzero" fill-opacity="1" transform="matrix(1 0 0 1.00091 1886 347)"/><path d="M393.429 820.201 472.481 820.201 472.481 859.362 393.429 859.362Z" fill="#FCFEFD" fill-rule="nonzero" fill-opacity="1" transform="matrix(1 0 0 1.00091 1886 347)"/><path d="M393.429 781.024 472.481 781.024 472.481 820.185 393.429 820.185Z" fill="#FCFDFD" fill-rule="nonzero" fill-opacity="1" transform="matrix(1 0 0 1.00091 1886 347)"/><path d="M393.429 741.862 472.481 741.862 472.481 781.024 393.429 781.024Z" fill="#EDF5F1" fill-rule="nonzero" fill-opacity="1" transform="matrix(1 0 0 1.00091 1886 347)"/><path d="M393.429 702.701 472.481 702.701 472.481 741.862 393.429 741.862Z" fill="#C1DBD0" fill-rule="nonzero" fill-opacity="1" transform="matrix(1 0 0 1.00091 1886 347)"/><path d="M393.429 663.54 472.481 663.54 472.481 702.701 393.429 702.701Z" fill="#8EBEAA" fill-rule="nonzero" fill-opacity="1" transform="matrix(1 0 0 1.00091 1886 347)"/><path d="M393.429 624.378 472.481 624.378 472.481 663.54 393.429 663.54Z" fill="#96C3B0" fill-rule="nonzero" fill-opacity="1" transform="matrix(1 0 0 1.00091 1886 347)"/><path d="M393.429 585.217 472.481 585.217 472.481 624.378 393.429 624.378Z" fill="#98C4B1" fill-rule="nonzero" fill-opacity="1" transform="matrix(1 0 0 1.00091 1886 347)"/><path d="M393.429 546.056 472.481 546.056 472.481 585.217 393.429 585.217Z" fill="#93C1AE" fill-rule="nonzero" fill-opacity="1" transform="matrix(1 0 0 1.00091 1886 347)"/><path d="M393.429 506.894 472.481 506.894 472.481 546.056 393.429 546.056Z" fill="#8ABCA7" fill-rule="nonzero" fill-opacity="1" transform="matrix(1 0 0 1.00091 1886 347)"/><path d="M393.429 467.733 472.481 467.733 472.481 506.894 393.429 506.894Z" fill="#539E82" fill-rule="nonzero" fill-opacity="1" transform="matrix(1 0 0 1.00091 1886 347)"/><path d="M393.429 428.572 472.481 428.572 472.481 467.733 393.429 467.733Z" fill="#49997C" fill-rule="nonzero" fill-opacity="1" transform="matrix(1 0 0 1.00091 1886 347)"/><path d="M393.429 389.41 472.481 389.41 472.481 428.572 393.429 428.572Z" fill="#93C1AE" fill-rule="nonzero" fill-opacity="1" transform="matrix(1 0 0 1.00091 1886 347)"/><path d="M393.429 350.233 472.481 350.233 472.481 389.395 393.429 389.395Z" fill="#98C4B2" fill-rule="nonzero" fill-opacity="1" transform="matrix(1 0 0 1.00091 1886 347)"/><path d="M393.429 311.072 472.481 311.072 472.481 350.233 393.429 350.233Z" fill="#80B6A0" fill-rule="nonzero" fill-opacity="1" transform="matrix(1 0 0 1.00091 1886 347)"/><path d="M393.429 271.911 472.481 271.911 472.481 311.072 393.429 311.072Z" fill="#74AF98" fill-rule="nonzero" fill-opacity="1" transform="matrix(1 0 0 1.00091 1886 347)"/><path d="M393.429 232.749 472.481 232.749 472.481 271.911 393.429 271.911Z" fill="#559F83" fill-rule="nonzero" fill-opacity="1" transform="matrix(1 0 0 1.00091 1886 347)"/><path d="M393.429 193.588 472.481 193.588 472.481 232.749 393.429 232.749Z" fill="#61A58B" fill-rule="nonzero" fill-opacity="1" transform="matrix(1 0 0 1.00091 1886 347)"/><path d="M393.429 154.427 472.481 154.427 472.481 193.588 393.429 193.588Z" fill="#9DC7B5" fill-rule="nonzero" fill-opacity="1" transform="matrix(1 0 0 1.00091 1886 347)"/><path d="M393.429 115.265 472.481 115.265 472.481 154.427 393.429 154.427Z" fill="#C4DDD2" fill-rule="nonzero" fill-opacity="1" transform="matrix(1 0 0 1.00091 1886 347)"/><path d="M393.429 76.104 472.481 76.104 472.481 115.265 393.429 115.265Z" fill="#CAE1D7" fill-rule="nonzero" fill-opacity="1" transform="matrix(1 0 0 1.00091 1886 347)"/><path d="M393.429 36.9426 472.481 36.9426 472.481 76.104 393.429 76.104Z" fill="#D8E9E1" fill-rule="nonzero" fill-opacity="1" transform="matrix(1 0 0 1.00091 1886 347)"/><path d="M472.481 937.685 551.533 937.685 551.533 976.846 472.481 976.846Z" fill="#EEF5F2" fill-rule="nonzero" fill-opacity="1" transform="matrix(1 0 0 1.00091 1886 347)"/><path d="M472.481 898.523 551.533 898.523 551.533 937.685 472.481 937.685Z" fill="#F7FBF9" fill-rule="nonzero" fill-opacity="1" transform="matrix(1 0 0 1.00091 1886 347)"/><path d="M472.481 859.362 551.533 859.362 551.533 898.523 472.481 898.523Z" fill="#F9FCFB" fill-rule="nonzero" fill-opacity="1" transform="matrix(1 0 0 1.00091 1886 347)"/><path d="M472.481 820.201 551.533 820.201 551.533 859.362 472.481 859.362Z" fill="#FBFDFC" fill-rule="nonzero" fill-opacity="1" transform="matrix(1 0 0 1.00091 1886 347)"/><path d="M472.481 781.024 551.533 781.024 551.533 820.185 472.481 820.185Z" fill="#FDFEFD" fill-rule="nonzero" fill-opacity="1" transform="matrix(1 0 0 1.00091 1886 347)"/><path d="M472.481 741.862 551.533 741.862 551.533 781.024 472.481 781.024Z" fill="#FCFEFD" fill-rule="nonzero" fill-opacity="1" transform="matrix(1 0 0 1.00091 1886 347)"/><path d="M472.481 702.701 551.533 702.701 551.533 741.862 472.481 741.862Z" fill="#F2F8F5" fill-rule="nonzero" fill-opacity="1" transform="matrix(1 0 0 1.00091 1886 347)"/><path d="M472.481 663.54 551.533 663.54 551.533 702.701 472.481 702.701Z" fill="#DCEBE4" fill-rule="nonzero" fill-opacity="1" transform="matrix(1 0 0 1.00091 1886 347)"/><path d="M472.481 624.378 551.533 624.378 551.533 663.54 472.481 663.54Z" fill="#B5D4C7" fill-rule="nonzero" fill-opacity="1" transform="matrix(1 0 0 1.00091 1886 347)"/><path d="M472.481 585.217 551.533 585.217 551.533 624.378 472.481 624.378Z" fill="#9AC5B3" fill-rule="nonzero" fill-opacity="1" transform="matrix(1 0 0 1.00091 1886 347)"/><path d="M472.481 546.056 551.533 546.056 551.533 585.217 472.481 585.217Z" fill="#71AE96" fill-rule="nonzero" fill-opacity="1" transform="matrix(1 0 0 1.00091 1886 347)"/><path d="M472.481 506.894 551.533 506.894 551.533 546.056 472.481 546.056Z" fill="#66A88E" fill-rule="nonzero" fill-opacity="1" transform="matrix(1 0 0 1.00091 1886 347)"/><path d="M472.481 467.733 551.533 467.733 551.533 506.894 472.481 506.894Z" fill="#70AE95" fill-rule="nonzero" fill-opacity="1" transform="matrix(1 0 0 1.00091 1886 347)"/><path d="M472.481 428.572 551.533 428.572 551.533 467.733 472.481 467.733Z" fill="#5DA389" fill-rule="nonzero" fill-opacity="1" transform="matrix(1 0 0 1.00091 1886 347)"/><path d="M472.481 389.41 551.533 389.41 551.533 428.572 472.481 428.572Z" fill="#83B8A2" fill-rule="nonzero" fill-opacity="1" transform="matrix(1 0 0 1.00091 1886 347)"/><path d="M472.481 350.233 551.533 350.233 551.533 389.395 472.481 389.395Z" fill="#5EA489" fill-rule="nonzero" fill-opacity="1" transform="matrix(1 0 0 1.00091 1886 347)"/><path d="M472.481 311.072 551.533 311.072 551.533 350.233 472.481 350.233Z" fill="#6AAA91" fill-rule="nonzero" fill-opacity="1" transform="matrix(1 0 0 1.00091 1886 347)"/><path d="M472.481 271.911 551.533 271.911 551.533 311.072 472.481 311.072Z" fill="#9CC6B4" fill-rule="nonzero" fill-opacity="1" transform="matrix(1 0 0 1.00091 1886 347)"/><path d="M472.481 232.749 551.533 232.749 551.533 271.911 472.481 271.911Z" fill="#7BB49D" fill-rule="nonzero" fill-opacity="1" transform="matrix(1 0 0 1.00091 1886 347)"/><path d="M472.481 193.588 551.533 193.588 551.533 232.749 472.481 232.749Z" fill="#69A990" fill-rule="nonzero" fill-opacity="1" transform="matrix(1 0 0 1.00091 1886 347)"/><path d="M472.481 154.427 551.533 154.427 551.533 193.588 472.481 193.588Z" fill="#90BFAC" fill-rule="nonzero" fill-opacity="1" transform="matrix(1 0 0 1.00091 1886 347)"/><path d="M472.481 115.265 551.533 115.265 551.533 154.427 472.481 154.427Z" fill="#BDD9CD" fill-rule="nonzero" fill-opacity="1" transform="matrix(1 0 0 1.00091 1886 347)"/><path d="M472.481 76.104 551.533 76.104 551.533 115.265 472.481 115.265Z" fill="#CAE0D6" fill-rule="nonzero" fill-opacity="1" transform="matrix(1 0 0 1.00091 1886 347)"/><path d="M472.481 36.9426 551.533 36.9426 551.533 76.104 472.481 76.104Z" fill="#E9F2EE" fill-rule="nonzero" fill-opacity="1" transform="matrix(1 0 0 1.00091 1886 347)"/><path d="M551.533 937.685 630.585 937.685 630.585 976.846 551.533 976.846Z" fill="#EEF5F2" fill-rule="nonzero" fill-opacity="1" transform="matrix(1 0 0 1.00091 1886 347)"/><path d="M551.533 898.523 630.585 898.523 630.585 937.685 551.533 937.685Z" fill="#F3F8F6" fill-rule="nonzero" fill-opacity="1" transform="matrix(1 0 0 1.00091 1886 347)"/><path d="M551.533 859.362 630.585 859.362 630.585 898.523 551.533 898.523Z" fill="#F9FCFA" fill-rule="nonzero" fill-opacity="1" transform="matrix(1 0 0 1.00091 1886 347)"/><path d="M551.533 820.201 630.585 820.201 630.585 859.362 551.533 859.362Z" fill="#FEFEFE" fill-rule="nonzero" fill-opacity="1" transform="matrix(1 0 0 1.00091 1886 347)"/><path d="M551.533 781.024 630.585 781.024 630.585 820.185 551.533 820.185Z" fill="#FEFEFE" fill-rule="nonzero" fill-opacity="1" transform="matrix(1 0 0 1.00091 1886 347)"/><path d="M551.533 741.862 630.585 741.862 630.585 781.024 551.533 781.024Z" fill="#F9FBFA" fill-rule="nonzero" fill-opacity="1" transform="matrix(1 0 0 1.00091 1886 347)"/><path d="M551.533 702.701 630.585 702.701 630.585 741.862 551.533 741.862Z" fill="#E8F2EE" fill-rule="nonzero" fill-opacity="1" transform="matrix(1 0 0 1.00091 1886 347)"/><path d="M551.533 663.54 630.585 663.54 630.585 702.701 551.533 702.701Z" fill="#CEE3DA" fill-rule="nonzero" fill-opacity="1" transform="matrix(1 0 0 1.00091 1886 347)"/><path d="M551.533 624.378 630.585 624.378 630.585 663.54 551.533 663.54Z" fill="#C5DED3" fill-rule="nonzero" fill-opacity="1" transform="matrix(1 0 0 1.00091 1886 347)"/><path d="M551.533 585.217 630.585 585.217 630.585 624.378 551.533 624.378Z" fill="#8FBFAB" fill-rule="nonzero" fill-opacity="1" transform="matrix(1 0 0 1.00091 1886 347)"/><path d="M551.533 546.056 630.585 546.056 630.585 585.217 551.533 585.217Z" fill="#62A68C" fill-rule="nonzero" fill-opacity="1" transform="matrix(1 0 0 1.00091 1886 347)"/><path d="M551.533 506.894 630.585 506.894 630.585 546.056 551.533 546.056Z" fill="#4A997D" fill-rule="nonzero" fill-opacity="1" transform="matrix(1 0 0 1.00091 1886 347)"/><path d="M551.533 467.733 630.585 467.733 630.585 506.894 551.533 506.894Z" fill="#66A88F" fill-rule="nonzero" fill-opacity="1" transform="matrix(1 0 0 1.00091 1886 347)"/><path d="M551.533 428.572 630.585 428.572 630.585 467.733 551.533 467.733Z" fill="#4D9B7E" fill-rule="nonzero" fill-opacity="1" transform="matrix(1 0 0 1.00091 1886 347)"/><path d="M551.533 389.41 630.585 389.41 630.585 428.572 551.533 428.572Z" fill="#529D81" fill-rule="nonzero" fill-opacity="1" transform="matrix(1 0 0 1.00091 1886 347)"/><path d="M551.533 350.233 630.585 350.233 630.585 389.395 551.533 389.395Z" fill="#77B19A" fill-rule="nonzero" fill-opacity="1" transform="matrix(1 0 0 1.00091 1886 347)"/><path d="M551.533 311.072 630.585 311.072 630.585 350.233 551.533 350.233Z" fill="#83B8A3" fill-rule="nonzero" fill-opacity="1" transform="matrix(1 0 0 1.00091 1886 347)"/><path d="M551.533 271.911 630.585 271.911 630.585 311.072 551.533 311.072Z" fill="#76B199" fill-rule="nonzero" fill-opacity="1" transform="matrix(1 0 0 1.00091 1886 347)"/><path d="M551.533 232.749 630.585 232.749 630.585 271.911 551.533 271.911Z" fill="#97C3B1" fill-rule="nonzero" fill-opacity="1" transform="matrix(1 0 0 1.00091 1886 347)"/><path d="M551.533 193.588 630.585 193.588 630.585 232.749 551.533 232.749Z" fill="#80B6A0" fill-rule="nonzero" fill-opacity="1" transform="matrix(1 0 0 1.00091 1886 347)"/><path d="M551.533 154.427 630.585 154.427 630.585 193.588 551.533 193.588Z" fill="#A4CBBA" fill-rule="nonzero" fill-opacity="1" transform="matrix(1 0 0 1.00091 1886 347)"/><path d="M551.533 115.265 630.585 115.265 630.585 154.427 551.533 154.427Z" fill="#CCE2D8" fill-rule="nonzero" fill-opacity="1" transform="matrix(1 0 0 1.00091 1886 347)"/><path d="M551.533 76.104 630.585 76.104 630.585 115.265 551.533 115.265Z" fill="#E3EFEA" fill-rule="nonzero" fill-opacity="1" transform="matrix(1 0 0 1.00091 1886 347)"/><path d="M551.533 36.9426 630.585 36.9426 630.585 76.104 551.533 76.104Z" fill="#E9F2EE" fill-rule="nonzero" fill-opacity="1" transform="matrix(1 0 0 1.00091 1886 347)"/></g><g clip-path="url(#clip6)"><path d="M69.3081 980.756 69.3081 33.0172" stroke="#000000" stroke-width="1.66017" stroke-linecap="butt" stroke-linejoin="round" stroke-miterlimit="10" stroke-opacity="1" fill="none" fill-rule="nonzero" transform="matrix(1 0 0 1.00091 1886 347)"/><text fill="#4D4D4D" fill-opacity="1" font-family="Arial,Arial_MSFontService,sans-serif" font-style="normal" font-variant="normal" font-weight="400" font-stretch="normal" font-size="9" text-anchor="start" direction="ltr" writing-mode="lr-tb" unicode-bidi="normal" text-decoration="none" transform="matrix(1.55156 0 0 1.55298 1893.35 1310)">00:00:00</text><text fill="#4D4D4D" fill-opacity="1" font-family="Arial,Arial_MSFontService,sans-serif" font-style="normal" font-variant="normal" font-weight="400" font-stretch="normal" font-size="9" text-anchor="start" direction="ltr" writing-mode="lr-tb" unicode-bidi="normal" text-decoration="none" transform="matrix(1.55156 0 0 1.55298 1893.35 1271)">01:00:00</text><text fill="#4D4D4D" fill-opacity="1" font-family="Arial,Arial_MSFontService,sans-serif" font-style="normal" font-variant="normal" font-weight="400" font-stretch="normal" font-size="9" text-anchor="start" direction="ltr" writing-mode="lr-tb" unicode-bidi="normal" text-decoration="none" transform="matrix(1.55156 0 0 1.55298 1893.35 1232)">02:00:00</text><text fill="#4D4D4D" fill-opacity="1" font-family="Arial,Arial_MSFontService,sans-serif" font-style="normal" font-variant="normal" font-weight="400" font-stretch="normal" font-size="9" text-anchor="start" direction="ltr" writing-mode="lr-tb" unicode-bidi="normal" text-decoration="none" transform="matrix(1.55156 0 0 1.55298 1893.35 1192)">03:00:00</text><text fill="#4D4D4D" fill-opacity="1" font-family="Arial,Arial_MSFontService,sans-serif" font-style="normal" font-variant="normal" font-weight="400" font-stretch="normal" font-size="9" text-anchor="start" direction="ltr" writing-mode="lr-tb" unicode-bidi="normal" text-decoration="none" transform="matrix(1.55156 0 0 1.55298 1893.35 1153)">04:00:00</text><text fill="#4D4D4D" fill-opacity="1" font-family="Arial,Arial_MSFontService,sans-serif" font-style="normal" font-variant="normal" font-weight="400" font-stretch="normal" font-size="9" text-anchor="start" direction="ltr" writing-mode="lr-tb" unicode-bidi="normal" text-decoration="none" transform="matrix(1.55156 0 0 1.55298 1893.35 1114)">05:00:00</text><text fill="#4D4D4D" fill-opacity="1" font-family="Arial,Arial_MSFontService,sans-serif" font-style="normal" font-variant="normal" font-weight="400" font-stretch="normal" font-size="9" text-anchor="start" direction="ltr" writing-mode="lr-tb" unicode-bidi="normal" text-decoration="none" transform="matrix(1.55156 0 0 1.55298 1893.35 1075)">06:00:00</text><text fill="#4D4D4D" fill-opacity="1" font-family="Arial,Arial_MSFontService,sans-serif" font-style="normal" font-variant="normal" font-weight="400" font-stretch="normal" font-size="9" text-anchor="start" direction="ltr" writing-mode="lr-tb" unicode-bidi="normal" text-decoration="none" transform="matrix(1.55156 0 0 1.55298 1893.35 1036)">07:00:00</text><text fill="#4D4D4D" fill-opacity="1" font-family="Arial,Arial_MSFontService,sans-serif" font-style="normal" font-variant="normal" font-weight="400" font-stretch="normal" font-size="9" text-anchor="start" direction="ltr" writing-mode="lr-tb" unicode-bidi="normal" text-decoration="none" transform="matrix(1.55156 0 0 1.55298 1893.35 996)">08:00:00</text><text fill="#4D4D4D" fill-opacity="1" font-family="Arial,Arial_MSFontService,sans-serif" font-style="normal" font-variant="normal" font-weight="400" font-stretch="normal" font-size="9" text-anchor="start" direction="ltr" writing-mode="lr-tb" unicode-bidi="normal" text-decoration="none" transform="matrix(1.55156 0 0 1.55298 1893.35 957)">09:00:00</text><text fill="#4D4D4D" fill-opacity="1" font-family="Arial,Arial_MSFontService,sans-serif" font-style="normal" font-variant="normal" font-weight="400" font-stretch="normal" font-size="9" text-anchor="start" direction="ltr" writing-mode="lr-tb" unicode-bidi="normal" text-decoration="none" transform="matrix(1.55156 0 0 1.55298 1893.35 918)">10:00:00</text><text fill="#4D4D4D" fill-opacity="1" font-family="Arial,Arial_MSFontService,sans-serif" font-style="normal" font-variant="normal" font-weight="400" font-stretch="normal" font-size="9" text-anchor="start" direction="ltr" writing-mode="lr-tb" unicode-bidi="normal" text-decoration="none" transform="matrix(1.55156 0 0 1.55298 1894.91 879)">11:00:00</text><text fill="#4D4D4D" fill-opacity="1" font-family="Arial,Arial_MSFontService,sans-serif" font-style="normal" font-variant="normal" font-weight="400" font-stretch="normal" font-size="9" text-anchor="start" direction="ltr" writing-mode="lr-tb" unicode-bidi="normal" text-decoration="none" transform="matrix(1.55156 0 0 1.55298 1893.35 840)">12:00:00</text><text fill="#4D4D4D" fill-opacity="1" font-family="Arial,Arial_MSFontService,sans-serif" font-style="normal" font-variant="normal" font-weight="400" font-stretch="normal" font-size="9" text-anchor="start" direction="ltr" writing-mode="lr-tb" unicode-bidi="normal" text-decoration="none" transform="matrix(1.55156 0 0 1.55298 1893.35 800)">13:00:00</text><text fill="#4D4D4D" fill-opacity="1" font-family="Arial,Arial_MSFontService,sans-serif" font-style="normal" font-variant="normal" font-weight="400" font-stretch="normal" font-size="9" text-anchor="start" direction="ltr" writing-mode="lr-tb" unicode-bidi="normal" text-decoration="none" transform="matrix(1.55156 0 0 1.55298 1893.35 761)">14:00:00</text><text fill="#4D4D4D" fill-opacity="1" font-family="Arial,Arial_MSFontService,sans-serif" font-style="normal" font-variant="normal" font-weight="400" font-stretch="normal" font-size="9" text-anchor="start" direction="ltr" writing-mode="lr-tb" unicode-bidi="normal" text-decoration="none" transform="matrix(1.55156 0 0 1.55298 1893.35 722)">15:00:00</text><text fill="#4D4D4D" fill-opacity="1" font-family="Arial,Arial_MSFontService,sans-serif" font-style="normal" font-variant="normal" font-weight="400" font-stretch="normal" font-size="9" text-anchor="start" direction="ltr" writing-mode="lr-tb" unicode-bidi="normal" text-decoration="none" transform="matrix(1.55156 0 0 1.55298 1893.35 683)">16:00:00</text><text fill="#4D4D4D" fill-opacity="1" font-family="Arial,Arial_MSFontService,sans-serif" font-style="normal" font-variant="normal" font-weight="400" font-stretch="normal" font-size="9" text-anchor="start" direction="ltr" writing-mode="lr-tb" unicode-bidi="normal" text-decoration="none" transform="matrix(1.55156 0 0 1.55298 1893.35 644)">17:00:00</text><text fill="#4D4D4D" fill-opacity="1" font-family="Arial,Arial_MSFontService,sans-serif" font-style="normal" font-variant="normal" font-weight="400" font-stretch="normal" font-size="9" text-anchor="start" direction="ltr" writing-mode="lr-tb" unicode-bidi="normal" text-decoration="none" transform="matrix(1.55156 0 0 1.55298 1893.35 604)">18:00:00</text><text fill="#4D4D4D" fill-opacity="1" font-family="Arial,Arial_MSFontService,sans-serif" font-style="normal" font-variant="normal" font-weight="400" font-stretch="normal" font-size="9" text-anchor="start" direction="ltr" writing-mode="lr-tb" unicode-bidi="normal" text-decoration="none" transform="matrix(1.55156 0 0 1.55298 1893.35 565)">19:00:00</text><text fill="#4D4D4D" fill-opacity="1" font-family="Arial,Arial_MSFontService,sans-serif" font-style="normal" font-variant="normal" font-weight="400" font-stretch="normal" font-size="9" text-anchor="start" direction="ltr" writing-mode="lr-tb" unicode-bidi="normal" text-decoration="none" transform="matrix(1.55156 0 0 1.55298 1893.35 526)">20:00:00</text><text fill="#4D4D4D" fill-opacity="1" font-family="Arial,Arial_MSFontService,sans-serif" font-style="normal" font-variant="normal" font-weight="400" font-stretch="normal" font-size="9" text-anchor="start" direction="ltr" writing-mode="lr-tb" unicode-bidi="normal" text-decoration="none" transform="matrix(1.55156 0 0 1.55298 1893.35 487)">21:00:00</text><text fill="#4D4D4D" fill-opacity="1" font-family="Arial,Arial_MSFontService,sans-serif" font-style="normal" font-variant="normal" font-weight="400" font-stretch="normal" font-size="9" text-anchor="start" direction="ltr" writing-mode="lr-tb" unicode-bidi="normal" text-decoration="none" transform="matrix(1.55156 0 0 1.55298 1893.35 448)">22:00:00</text><text fill="#4D4D4D" fill-opacity="1" font-family="Arial,Arial_MSFontService,sans-serif" font-style="normal" font-variant="normal" font-weight="400" font-stretch="normal" font-size="9" text-anchor="start" direction="ltr" writing-mode="lr-tb" unicode-bidi="normal" text-decoration="none" transform="matrix(1.55156 0 0 1.55298 1893.35 408)">23:00:00</text><path d="M65.0569 957.265 69.3081 957.265" stroke="#333333" stroke-width="1.66017" stroke-linecap="butt" stroke-linejoin="round" stroke-miterlimit="10" stroke-opacity="1" fill="none" fill-rule="nonzero" transform="matrix(1 0 0 1.00091 1886 347)"/><path d="M65.0569 918.104 69.3081 918.104" stroke="#333333" stroke-width="1.66017" stroke-linecap="butt" stroke-linejoin="round" stroke-miterlimit="10" stroke-opacity="1" fill="none" fill-rule="nonzero" transform="matrix(1 0 0 1.00091 1886 347)"/><path d="M65.0569 878.943 69.3081 878.943" stroke="#333333" stroke-width="1.66017" stroke-linecap="butt" stroke-linejoin="round" stroke-miterlimit="10" stroke-opacity="1" fill="none" fill-rule="nonzero" transform="matrix(1 0 0 1.00091 1886 347)"/><path d="M65.0569 839.781 69.3081 839.781" stroke="#333333" stroke-width="1.66017" stroke-linecap="butt" stroke-linejoin="round" stroke-miterlimit="10" stroke-opacity="1" fill="none" fill-rule="nonzero" transform="matrix(1 0 0 1.00091 1886 347)"/><path d="M65.0569 800.604 69.3081 800.604" stroke="#333333" stroke-width="1.66017" stroke-linecap="butt" stroke-linejoin="round" stroke-miterlimit="10" stroke-opacity="1" fill="none" fill-rule="nonzero" transform="matrix(1 0 0 1.00091 1886 347)"/><path d="M65.0569 761.443 69.3081 761.443" stroke="#333333" stroke-width="1.66017" stroke-linecap="butt" stroke-linejoin="round" stroke-miterlimit="10" stroke-opacity="1" fill="none" fill-rule="nonzero" transform="matrix(1 0 0 1.00091 1886 347)"/><path d="M65.0569 722.282 69.3081 722.282" stroke="#333333" stroke-width="1.66017" stroke-linecap="butt" stroke-linejoin="round" stroke-miterlimit="10" stroke-opacity="1" fill="none" fill-rule="nonzero" transform="matrix(1 0 0 1.00091 1886 347)"/><path d="M65.0569 683.12 69.3081 683.12" stroke="#333333" stroke-width="1.66017" stroke-linecap="butt" stroke-linejoin="round" stroke-miterlimit="10" stroke-opacity="1" fill="none" fill-rule="nonzero" transform="matrix(1 0 0 1.00091 1886 347)"/><path d="M65.0569 643.959 69.3081 643.959" stroke="#333333" stroke-width="1.66017" stroke-linecap="butt" stroke-linejoin="round" stroke-miterlimit="10" stroke-opacity="1" fill="none" fill-rule="nonzero" transform="matrix(1 0 0 1.00091 1886 347)"/><path d="M65.0569 604.798 69.3081 604.798" stroke="#333333" stroke-width="1.66017" stroke-linecap="butt" stroke-linejoin="round" stroke-miterlimit="10" stroke-opacity="1" fill="none" fill-rule="nonzero" transform="matrix(1 0 0 1.00091 1886 347)"/><path d="M65.0569 565.636 69.3081 565.636" stroke="#333333" stroke-width="1.66017" stroke-linecap="butt" stroke-linejoin="round" stroke-miterlimit="10" stroke-opacity="1" fill="none" fill-rule="nonzero" transform="matrix(1 0 0 1.00091 1886 347)"/><path d="M65.0569 526.475 69.3081 526.475" stroke="#333333" stroke-width="1.66017" stroke-linecap="butt" stroke-linejoin="round" stroke-miterlimit="10" stroke-opacity="1" fill="none" fill-rule="nonzero" transform="matrix(1 0 0 1.00091 1886 347)"/><path d="M65.0569 487.314 69.3081 487.314" stroke="#333333" stroke-width="1.66017" stroke-linecap="butt" stroke-linejoin="round" stroke-miterlimit="10" stroke-opacity="1" fill="none" fill-rule="nonzero" transform="matrix(1 0 0 1.00091 1886 347)"/><path d="M65.0569 448.152 69.3081 448.152" stroke="#333333" stroke-width="1.66017" stroke-linecap="butt" stroke-linejoin="round" stroke-miterlimit="10" stroke-opacity="1" fill="none" fill-rule="nonzero" transform="matrix(1 0 0 1.00091 1886 347)"/><path d="M65.0569 408.991 69.3081 408.991" stroke="#333333" stroke-width="1.66017" stroke-linecap="butt" stroke-linejoin="round" stroke-miterlimit="10" stroke-opacity="1" fill="none" fill-rule="nonzero" transform="matrix(1 0 0 1.00091 1886 347)"/><path d="M65.0569 369.83 69.3081 369.83" stroke="#333333" stroke-width="1.66017" stroke-linecap="butt" stroke-linejoin="round" stroke-miterlimit="10" stroke-opacity="1" fill="none" fill-rule="nonzero" transform="matrix(1 0 0 1.00091 1886 347)"/><path d="M65.0569 330.653 69.3081 330.653" stroke="#333333" stroke-width="1.66017" stroke-linecap="butt" stroke-linejoin="round" stroke-miterlimit="10" stroke-opacity="1" fill="none" fill-rule="nonzero" transform="matrix(1 0 0 1.00091 1886 347)"/><path d="M65.0569 291.491 69.3081 291.491" stroke="#333333" stroke-width="1.66017" stroke-linecap="butt" stroke-linejoin="round" stroke-miterlimit="10" stroke-opacity="1" fill="none" fill-rule="nonzero" transform="matrix(1 0 0 1.00091 1886 347)"/><path d="M65.0569 252.33 69.3081 252.33" stroke="#333333" stroke-width="1.66017" stroke-linecap="butt" stroke-linejoin="round" stroke-miterlimit="10" stroke-opacity="1" fill="none" fill-rule="nonzero" transform="matrix(1 0 0 1.00091 1886 347)"/><path d="M65.0569 213.169 69.3081 213.169" stroke="#333333" stroke-width="1.66017" stroke-linecap="butt" stroke-linejoin="round" stroke-miterlimit="10" stroke-opacity="1" fill="none" fill-rule="nonzero" transform="matrix(1 0 0 1.00091 1886 347)"/><path d="M65.0569 174.007 69.3081 174.007" stroke="#333333" stroke-width="1.66017" stroke-linecap="butt" stroke-linejoin="round" stroke-miterlimit="10" stroke-opacity="1" fill="none" fill-rule="nonzero" transform="matrix(1 0 0 1.00091 1886 347)"/><path d="M65.0569 134.846 69.3081 134.846" stroke="#333333" stroke-width="1.66017" stroke-linecap="butt" stroke-linejoin="round" stroke-miterlimit="10" stroke-opacity="1" fill="none" fill-rule="nonzero" transform="matrix(1 0 0 1.00091 1886 347)"/><path d="M65.0569 95.6846 69.3081 95.6846" stroke="#333333" stroke-width="1.66017" stroke-linecap="butt" stroke-linejoin="round" stroke-miterlimit="10" stroke-opacity="1" fill="none" fill-rule="nonzero" transform="matrix(1 0 0 1.00091 1886 347)"/><path d="M65.0569 56.5233 69.3081 56.5233" stroke="#333333" stroke-width="1.66017" stroke-linecap="butt" stroke-linejoin="round" stroke-miterlimit="10" stroke-opacity="1" fill="none" fill-rule="nonzero" transform="matrix(1 0 0 1.00091 1886 347)"/><path d="M69.3081 980.756 638.497 980.756" stroke="#000000" stroke-width="1.66017" stroke-linecap="butt" stroke-linejoin="round" stroke-miterlimit="10" stroke-opacity="1" fill="none" fill-rule="nonzero" transform="matrix(1 0 0 1.00091 1886 347)"/><path d="M116.739 985.007 116.739 980.756" stroke="#333333" stroke-width="1.66017" stroke-linecap="butt" stroke-linejoin="round" stroke-miterlimit="10" stroke-opacity="1" fill="none" fill-rule="nonzero" transform="matrix(1 0 0 1.00091 1886 347)"/><path d="M195.791 985.007 195.791 980.756" stroke="#333333" stroke-width="1.66017" stroke-linecap="butt" stroke-linejoin="round" stroke-miterlimit="10" stroke-opacity="1" fill="none" fill-rule="nonzero" transform="matrix(1 0 0 1.00091 1886 347)"/><path d="M274.843 985.007 274.843 980.756" stroke="#333333" stroke-width="1.66017" stroke-linecap="butt" stroke-linejoin="round" stroke-miterlimit="10" stroke-opacity="1" fill="none" fill-rule="nonzero" transform="matrix(1 0 0 1.00091 1886 347)"/><path d="M353.895 985.007 353.895 980.756" stroke="#333333" stroke-width="1.66017" stroke-linecap="butt" stroke-linejoin="round" stroke-miterlimit="10" stroke-opacity="1" fill="none" fill-rule="nonzero" transform="matrix(1 0 0 1.00091 1886 347)"/><path d="M432.962 985.007 432.962 980.756" stroke="#333333" stroke-width="1.66017" stroke-linecap="butt" stroke-linejoin="round" stroke-miterlimit="10" stroke-opacity="1" fill="none" fill-rule="nonzero" transform="matrix(1 0 0 1.00091 1886 347)"/><path d="M512.014 985.007 512.014 980.756" stroke="#333333" stroke-width="1.66017" stroke-linecap="butt" stroke-linejoin="round" stroke-miterlimit="10" stroke-opacity="1" fill="none" fill-rule="nonzero" transform="matrix(1 0 0 1.00091 1886 347)"/><path d="M591.066 985.007 591.066 980.756" stroke="#333333" stroke-width="1.66017" stroke-linecap="butt" stroke-linejoin="round" stroke-miterlimit="10" stroke-opacity="1" fill="none" fill-rule="nonzero" transform="matrix(1 0 0 1.00091 1886 347)"/><text fill="#4D4D4D" fill-opacity="1" font-family="Arial,Arial_MSFontService,sans-serif" font-style="normal" font-variant="normal" font-weight="400" font-stretch="normal" font-size="9" text-anchor="start" direction="ltr" writing-mode="lr-tb" unicode-bidi="normal" text-decoration="none" transform="matrix(9.50056e-17 -1.55298 1.55156 9.50923e-17 2012.53 1397)">Monday</text><text fill="#4D4D4D" fill-opacity="1" font-family="Arial,Arial_MSFontService,sans-serif" font-style="normal" font-variant="normal" font-weight="400" font-stretch="normal" font-size="9" text-anchor="start" direction="ltr" writing-mode="lr-tb" unicode-bidi="normal" text-decoration="none" transform="matrix(9.50056e-17 -1.55298 1.55156 9.50923e-17 2091.58 1399)">Tuesday</text><text fill="#4D4D4D" fill-opacity="1" font-family="Arial,Arial_MSFontService,sans-serif" font-style="normal" font-variant="normal" font-weight="400" font-stretch="normal" font-size="9" text-anchor="start" direction="ltr" writing-mode="lr-tb" unicode-bidi="normal" text-decoration="none" transform="matrix(9.50056e-17 -1.55298 1.55156 9.50923e-17 2170.63 1409)">Wednesday</text><text fill="#4D4D4D" fill-opacity="1" font-family="Arial,Arial_MSFontService,sans-serif" font-style="normal" font-variant="normal" font-weight="400" font-stretch="normal" font-size="9" text-anchor="start" direction="ltr" writing-mode="lr-tb" unicode-bidi="normal" text-decoration="none" transform="matrix(9.50056e-17 -1.55298 1.55156 9.50923e-17 2249.69 1402)">Thursday</text><text fill="#4D4D4D" fill-opacity="1" font-family="Arial,Arial_MSFontService,sans-serif" font-style="normal" font-variant="normal" font-weight="400" font-stretch="normal" font-size="9" text-anchor="start" direction="ltr" writing-mode="lr-tb" unicode-bidi="normal" text-decoration="none" transform="matrix(9.50056e-17 -1.55298 1.55156 9.50923e-17 2328.74 1392)">Friday</text><text fill="#4D4D4D" fill-opacity="1" font-family="Arial,Arial_MSFontService,sans-serif" font-style="normal" font-variant="normal" font-weight="400" font-stretch="normal" font-size="9" text-anchor="start" direction="ltr" writing-mode="lr-tb" unicode-bidi="normal" text-decoration="none" transform="matrix(9.50056e-17 -1.55298 1.55156 9.50923e-17 2407.8 1400)">Saturday</text><text fill="#4D4D4D" fill-opacity="1" font-family="Arial,Arial_MSFontService,sans-serif" font-style="normal" font-variant="normal" font-weight="400" font-stretch="normal" font-size="9" text-anchor="start" direction="ltr" writing-mode="lr-tb" unicode-bidi="normal" text-decoration="none" transform="matrix(9.50056e-17 -1.55298 1.55156 9.50923e-17 2486.86 1396)">Sunday</text><text fill="#000000" fill-opacity="1" font-family="Arial,Arial_MSFontService,sans-serif" font-style="normal" font-variant="normal" font-weight="400" font-stretch="normal" font-size="11" text-anchor="start" direction="ltr" writing-mode="lr-tb" unicode-bidi="normal" text-decoration="none" transform="matrix(1.55156 0 0 1.55298 1955.31 368)">Daily average steps</text></g></g></g></g></g></svg>