<svg xmlns="http://www.w3.org/2000/svg" xmlns:xlink="http://www.w3.org/1999/xlink" class="httpgd" width="435.00" height="340.00" viewBox="0 0 435.00 340.00">
<defs>
  <style type='text/css'><![CDATA[
    .httpgd line, .httpgd polyline, .httpgd polygon, .httpgd path, .httpgd rect, .httpgd circle {
      fill: none;
      stroke: #000000;
      stroke-linecap: round;
      stroke-linejoin: round;
      stroke-miterlimit: 10.00;
    }
  ]]></style>
<clipPath id="c0"><rect x="0.00" y="0.00" width="435.00" height="340.00"/></clipPath>
<clipPath id="c1"><rect x="6.75" y="17.86" width="322.14" height="322.14"/></clipPath>
<clipPath id="c2"><rect x="0.00" y="0.00" width="435.00" height="340.00"/></clipPath>
</defs>
<rect width="100%" height="100%" style="stroke: none;fill: #FFFFFF;"/>
<g clip-path="url(#c0)">
</g><g clip-path="url(#c1)">
<polygon points="167.82,89.12 167.82,84.24 167.82,79.36 167.82,74.48 167.82,69.59 167.82,64.71 167.82,59.83 167.82,54.95 167.82,50.07 163.44,50.14 159.08,50.37 154.72,50.74 150.37,51.26 146.05,51.92 141.75,52.74 137.48,53.69 133.25,54.79 129.05,56.04 124.90,57.43 120.80,58.95 116.76,60.62 112.77,62.42 108.85,64.36 104.99,66.42 101.21,68.62 97.51,70.95 93.88,73.39 90.34,75.96 86.89,78.65 83.53,81.46 80.27,84.38 77.11,87.40 74.06,90.53 71.11,93.77 68.28,97.10 65.56,100.53 62.95,104.04 60.47,107.65 58.12,111.33 55.88,115.09 53.78,118.93 51.81,122.83 49.97,126.81 48.27,130.84 46.71,134.92 45.28,139.06 44.00,143.24 42.86,147.46 41.87,151.72 41.01,156.01 40.31,160.33 39.75,164.67 39.34,169.03 39.08,173.39 38.97,177.77 39.00,182.14 39.18,186.51 39.52,190.87 40.00,195.22 40.62,199.55 41.40,203.86 42.31,208.14 43.38,212.38 44.59,216.58 45.93,220.75 47.42,224.86 49.05,228.92 50.82,232.92 52.72,236.86 54.75,240.74 56.92,244.54 59.21,248.27 61.62,251.91 64.16,255.47 66.82,258.95 69.59,262.33 72.48,265.62 75.48,268.80 78.58,271.89 81.79,274.86 85.10,277.73 88.50,280.48 91.99,283.11 95.57,285.63 99.23,288.02 102.98,290.28 106.79,292.42 110.68,294.43 114.64,296.30 118.65,298.04 122.72,299.64 126.85,301.10 131.02,302.42 135.23,303.60 139.48,304.63 143.76,305.52 148.07,306.26 152.41,306.86 156.76,307.31 161.12,307.61 165.50,307.76 169.87,307.77 174.24,307.63 178.61,307.33 182.96,306.89 187.30,306.31 191.61,305.57 195.89,304.69 200.15,303.66 204.36,302.50 208.54,301.18 212.66,299.73 216.74,298.14 220.76,296.41 224.71,294.55 228.60,292.55 232.43,290.42 236.17,288.16 239.84,285.78 243.43,283.27 246.93,280.64 250.33,277.90 253.65,275.04 256.86,272.07 259.97,269.00 262.97,265.82 265.87,262.54 268.65,259.16 271.32,255.69 273.86,252.13 276.29,248.49 278.58,244.77 280.76,240.97 282.80,237.10 284.70,233.17 286.48,229.17 288.12,225.11 289.61,221.00 290.97,216.84 292.19,212.64 293.26,208.40 294.19,204.12 294.97,199.82 295.61,195.49 296.10,191.14 296.44,186.78 296.63,182.41 296.67,178.04 296.57,173.66 296.32,169.30 295.91,164.94 295.37,160.60 294.67,156.28 293.83,151.99 292.84,147.73 291.71,143.50 290.44,139.31 289.02,135.17 287.47,131.09 285.77,127.05 283.94,123.08 281.98,119.17 279.89,115.33 277.66,111.56 275.31,107.87 272.84,104.26 270.24,100.74 267.53,97.31 264.70,93.97 261.76,90.73 258.71,87.59 255.56,84.56 252.31,81.64 248.96,78.82 245.88,82.62 242.81,86.41 239.74,90.20 236.66,93.99 233.59,97.78 230.52,101.57 227.44,105.37 224.37,109.16 227.70,111.99 230.89,114.99 233.93,118.14 236.81,121.43 239.53,124.86 242.07,128.41 244.45,132.09 246.64,135.87 248.64,139.76 250.45,143.75 252.07,147.81 253.48,151.95 254.69,156.15 255.70,160.41 256.50,164.71 257.08,169.05 257.46,173.41 257.62,177.78 257.57,182.15 257.31,186.52 256.83,190.87 256.14,195.19 255.25,199.47 254.14,203.70 252.84,207.88 251.32,211.98 249.62,216.01 247.71,219.95 245.62,223.79 243.34,227.52 240.89,231.14 238.26,234.64 235.46,238.00 232.51,241.23 229.40,244.30 226.14,247.22 222.74,249.98 219.22,252.57 215.57,254.99 211.81,257.22 207.95,259.27 203.99,261.13 199.94,262.80 195.82,264.26 191.63,265.52 187.39,266.58 183.09,267.43 178.77,268.07 174.41,268.50 170.04,268.71 165.67,268.71 161.30,268.50 156.95,268.08 152.62,267.44 148.33,266.60 144.08,265.54 139.89,264.29 135.77,262.82 131.72,261.16 127.76,259.31 123.89,257.26 120.13,255.03 116.48,252.62 112.95,250.03 109.56,247.27 106.30,244.36 103.18,241.28 100.22,238.06 97.43,234.70 94.79,231.21 92.33,227.59 90.05,223.86 87.96,220.02 86.05,216.08 84.34,212.05 82.83,207.95 81.51,203.77 80.41,199.54 79.51,195.26 78.82,190.94 78.34,186.59 78.07,182.23 78.02,177.85 78.17,173.48 78.55,169.12 79.13,164.79 79.92,160.49 80.92,156.23 82.13,152.02 83.55,147.88 85.16,143.82 86.96,139.83 88.96,135.94 91.15,132.15 93.52,128.48 96.06,124.92 98.78,121.49 101.66,118.19 104.69,115.04 107.88,112.05 111.21,109.21 114.67,106.53 118.26,104.03 121.96,101.71 125.78,99.57 129.69,97.61 133.70,95.85 137.78,94.29 141.94,92.93 146.16,91.77 150.43,90.82 154.74,90.08 159.08,89.54 163.45,89.22 167.82,89.12" style="stroke-width: 1.07;stroke: none;stroke-linecap: butt;stroke-linejoin: miter;fill: #D3D3D3;" />
<polygon points="224.37,109.16 227.44,105.37 230.52,101.57 233.59,97.78 236.66,93.99 239.74,90.20 242.81,86.41 245.88,82.62 248.96,78.82 245.50,76.12 241.96,73.53 238.32,71.07 234.61,68.73 230.82,66.52 226.96,64.44 223.02,62.49 219.03,60.68 214.97,59.01 210.86,57.47 206.70,56.08 202.49,54.82 198.25,53.71 193.97,52.75 189.65,51.93 185.32,51.26 180.96,50.74 176.59,50.37 172.21,50.15 167.82,50.07 167.82,54.95 167.82,59.83 167.82,64.71 167.82,69.59 167.82,74.48 167.82,79.36 167.82,84.24 167.82,89.12 172.19,89.22 176.54,89.54 180.88,90.07 185.19,90.81 189.45,91.76 193.66,92.92 197.82,94.28 201.90,95.84 205.90,97.59 209.81,99.54 213.62,101.68 217.32,103.99 220.91,106.49 224.37,109.16" style="stroke-width: 1.07;stroke: none;stroke-linecap: butt;stroke-linejoin: miter;fill: #027AB0;" />
<g><text x="131.30" y="286.06" text-anchor="middle" style="font-family: Arial;font-size: 11.38px;" textLength="52.50px" lengthAdjust="spacingAndGlyphs">1135 mins</text></g>
<g><text x="204.34" y="79.96" text-anchor="middle" style="font-family: Arial;font-size: 11.38px;" textLength="46.17px" lengthAdjust="spacingAndGlyphs">138 mins</text></g>
</g><g clip-path="url(#c2)">
<g><text x="334.56" y="162.85" style="font-family: Arial;font-size: 11.00px;" textLength="58.67px" lengthAdjust="spacingAndGlyphs">Activity type</text></g>
<rect x="335.27" y="170.26" width="15.86" height="15.86" style="stroke-width: 1.07;stroke: none;stroke-linecap: butt;stroke-linejoin: miter;fill: #D3D3D3;"/>
<rect x="335.27" y="187.54" width="15.86" height="15.86" style="stroke-width: 1.07;stroke: none;stroke-linecap: butt;stroke-linejoin: miter;fill: #027AB0;"/>
<g><text x="357.32" y="181.34" style="font-family: Arial;font-size: 8.80px;" textLength="70.93px" lengthAdjust="spacingAndGlyphs">seden_active_min</text></g>
<g><text x="357.32" y="198.62" style="font-family: Arial;font-size: 8.80px;" textLength="42.06px" lengthAdjust="spacingAndGlyphs">active_min</text></g>
<g><text x="6.75" y="14.94" style="font-family: Arial;font-size: 13.20px;" textLength="64.50px" lengthAdjust="spacingAndGlyphs">Active time</text></g>
</g>
</svg>