<svg xmlns="http://www.w3.org/2000/svg" xmlns:xlink="http://www.w3.org/1999/xlink" class="httpgd" width="435.00" height="340.00" viewBox="0 0 435.00 340.00">
<defs>
  <style type='text/css'><![CDATA[
    .httpgd line, .httpgd polyline, .httpgd polygon, .httpgd path, .httpgd rect, .httpgd circle {
      fill: none;
      stroke: #000000;
      stroke-linecap: round;
      stroke-linejoin: round;
      stroke-miterlimit: 10.00;
    }
  ]]></style>
<clipPath id="c0"><rect x="0.00" y="0.00" width="435.00" height="340.00"/></clipPath>
<clipPath id="c1"><rect x="6.75" y="17.86" width="322.14" height="322.14"/></clipPath>
<clipPath id="c2"><rect x="0.00" y="0.00" width="435.00" height="340.00"/></clipPath>
</defs>
<rect width="100%" height="100%" style="stroke: none;fill: #FFFFFF;"/>
<g clip-path="url(#c0)">
</g><g clip-path="url(#c1)">
<polygon points="167.82,89.12 167.82,84.24 167.82,79.36 167.82,74.48 167.82,69.59 167.82,64.71 167.82,59.83 167.82,54.95 167.82,50.07 163.44,50.15 159.06,50.37 154.70,50.74 150.35,51.26 146.02,51.93 141.71,52.74 137.44,53.70 133.20,54.81 129.00,56.06 124.84,57.45 120.74,58.98 116.69,60.65 112.70,62.46 108.77,64.40 104.91,66.47 101.12,68.67 97.41,71.00 93.79,73.46 90.24,76.04 86.79,78.73 83.43,81.55 80.17,84.47 77.01,87.51 73.95,90.65 71.01,93.89 68.17,97.23 65.45,100.66 62.85,104.19 60.37,107.80 58.01,111.49 55.79,115.27 53.69,119.11 51.72,123.03 49.89,127.01 48.19,131.04 46.63,135.14 45.21,139.28 43.93,143.48 42.80,147.71 41.81,151.98 40.97,156.27 40.27,160.60 39.72,164.95 39.32,169.31 39.07,173.68 38.96,178.06 39.01,182.44 39.20,186.82 39.55,191.19 40.04,195.54 40.68,199.88 41.46,204.19 42.39,208.47 43.47,212.71 44.69,216.92 46.05,221.09 47.56,225.20 49.20,229.26 50.98,233.27 52.89,237.21 54.94,241.08 57.12,244.88 59.42,248.61 61.86,252.25 64.41,255.81 67.08,259.28 69.87,262.66 72.78,265.94 75.79,269.12 78.91,272.20 82.13,275.17 85.45,278.02 88.87,280.77 92.38,283.39 95.97,285.90 99.65,288.28 103.41,290.53 107.24,292.66 111.14,294.65 115.11,296.51 119.13,298.23 123.22,299.82 127.35,301.27 131.53,302.57 135.76,303.73 140.02,304.75 144.31,305.62 148.63,306.35 152.98,306.93 157.34,307.36 161.71,307.64 166.09,307.77 170.47,307.76 174.85,307.59 179.22,307.28 183.57,306.82 187.91,306.21 192.23,305.45 196.52,304.55 200.77,303.50 204.99,302.31 209.16,300.97 213.28,299.50 217.36,297.88 221.37,296.13 225.32,294.24 229.21,292.22 233.03,290.07 236.77,287.79 240.43,285.38 244.01,282.85 247.49,280.20 250.89,277.43 254.19,274.55 257.39,271.56 260.49,268.46 263.48,265.26 266.36,261.96 269.13,258.56 271.77,255.07 274.30,251.49 276.71,247.83 278.99,244.09 281.14,240.27 283.16,236.38 285.04,232.43 286.80,228.41 288.41,224.34 289.88,220.21 291.22,216.04 292.41,211.82 293.45,207.57 294.35,203.28 295.11,198.97 295.72,194.63 296.18,190.27 296.49,185.90 296.65,181.52 296.66,177.14 296.53,172.76 296.24,168.39 291.38,168.79 286.52,169.19 281.65,169.59 276.79,169.99 271.92,170.39 267.06,170.79 262.19,171.18 257.33,171.58 257.58,175.97 257.62,180.36 257.44,184.75 257.05,189.13 256.44,193.48 255.62,197.80 254.60,202.07 253.36,206.28 251.92,210.43 250.28,214.51 248.44,218.50 246.41,222.39 244.19,226.18 241.79,229.86 239.21,233.42 236.46,236.84 233.54,240.13 230.47,243.27 227.25,246.26 223.89,249.09 220.39,251.74 216.77,254.23 213.02,256.53 209.18,258.65 205.23,260.58 201.19,262.31 197.07,263.84 192.89,265.17 188.64,266.29 184.34,267.20 180.00,267.91 175.64,268.40 171.25,268.67 166.86,268.73 162.47,268.58 158.09,268.21 153.74,267.63 149.42,266.83 145.14,265.83 140.92,264.62 136.76,263.20 132.68,261.58 128.68,259.76 124.77,257.75 120.97,255.55 117.28,253.17 113.71,250.61 110.27,247.88 106.97,244.98 103.81,241.92 100.80,238.72 97.96,235.37 95.28,231.89 92.78,228.28 90.46,224.55 88.32,220.71 86.37,216.77 84.62,212.74 83.06,208.63 81.71,204.45 80.57,200.21 79.63,195.92 78.91,191.59 78.39,187.23 78.09,182.84 78.01,178.45 78.14,174.06 78.49,169.68 79.05,165.32 79.82,161.00 80.80,156.71 81.99,152.49 83.39,148.32 84.98,144.23 86.78,140.22 88.77,136.30 90.95,132.49 93.31,128.78 95.85,125.20 98.57,121.75 101.44,118.43 104.48,115.25 107.67,112.23 111.01,109.37 114.47,106.68 118.07,104.15 121.79,101.81 125.61,99.65 129.54,97.68 133.56,95.91 137.66,94.33 141.83,92.96 146.07,91.79 150.36,90.83 154.68,90.08 159.05,89.55 163.43,89.23 167.82,89.12" style="stroke-width: 1.07;stroke: none;stroke-linecap: butt;stroke-linejoin: miter;fill: #D3D3D3;" />
<polygon points="257.33,171.58 262.19,171.18 267.06,170.79 271.92,170.39 276.79,169.99 281.65,169.59 286.52,169.19 291.38,168.79 296.24,168.39 295.81,164.05 295.24,159.73 294.52,155.43 293.65,151.16 292.64,146.92 291.48,142.71 290.19,138.55 288.75,134.43 287.17,130.37 285.46,126.35 283.62,122.40 281.64,118.52 279.53,114.70 277.29,110.96 274.93,107.30 272.45,103.71 269.84,100.22 267.12,96.81 264.28,93.50 261.34,90.28 258.29,87.17 255.13,84.16 251.87,81.26 248.52,78.47 245.08,75.80 241.54,73.24 237.92,70.81 234.23,68.50 230.45,66.32 226.61,64.26 222.69,62.34 218.72,60.55 214.68,58.90 210.60,57.38 206.46,56.00 202.28,54.76 198.06,53.67 193.80,52.72 189.52,51.91 185.21,51.25 180.88,50.73 176.53,50.37 172.18,50.14 167.82,50.07 167.82,54.95 167.82,59.83 167.82,64.71 167.82,69.59 167.82,74.48 167.82,79.36 167.82,84.24 167.82,89.12 172.27,89.23 176.72,89.56 181.14,90.11 185.53,90.88 189.88,91.87 194.17,93.07 198.40,94.48 202.55,96.10 206.61,97.93 210.58,99.95 214.45,102.17 218.20,104.58 221.83,107.17 225.32,109.94 228.67,112.88 231.87,115.98 234.92,119.23 237.80,122.64 240.50,126.18 243.03,129.85 245.37,133.64 247.52,137.54 249.48,141.55 251.23,145.64 252.78,149.82 254.12,154.08 255.25,158.39 256.16,162.75 256.85,167.15 257.33,171.58" style="stroke-width: 1.07;stroke: none;stroke-linecap: butt;stroke-linejoin: miter;fill: #AE3918;" />
<g><text x="93.74" y="263.42" text-anchor="middle" style="font-family: Arial;font-size: 11.38px;" textLength="46.17px" lengthAdjust="spacingAndGlyphs">937 mins</text></g>
<g><text x="241.90" y="102.60" text-anchor="middle" style="font-family: Arial;font-size: 11.38px;" textLength="46.17px" lengthAdjust="spacingAndGlyphs">291 mins</text></g>
</g><g clip-path="url(#c2)">
<g><text x="334.56" y="162.85" style="font-family: Arial;font-size: 11.00px;" textLength="58.67px" lengthAdjust="spacingAndGlyphs">Activity type</text></g>
<rect x="335.27" y="170.26" width="15.86" height="15.86" style="stroke-width: 1.07;stroke: none;stroke-linecap: butt;stroke-linejoin: miter;fill: #D3D3D3;"/>
<rect x="335.27" y="187.54" width="15.86" height="15.86" style="stroke-width: 1.07;stroke: none;stroke-linecap: butt;stroke-linejoin: miter;fill: #AE3918;"/>
<g><text x="357.32" y="181.34" style="font-family: Arial;font-size: 8.80px;" textLength="70.93px" lengthAdjust="spacingAndGlyphs">seden_active_min</text></g>
<g><text x="357.32" y="198.62" style="font-family: Arial;font-size: 8.80px;" textLength="42.06px" lengthAdjust="spacingAndGlyphs">active_min</text></g>
<g><text x="6.75" y="14.94" style="font-family: Arial;font-size: 13.20px;" textLength="64.50px" lengthAdjust="spacingAndGlyphs">Active time</text></g>
</g>
</svg>