<svg xmlns="http://www.w3.org/2000/svg" xmlns:xlink="http://www.w3.org/1999/xlink" class="httpgd" width="435.00" height="340.00" viewBox="0 0 435.00 340.00">
<defs>
  <style type='text/css'><![CDATA[
    .httpgd line, .httpgd polyline, .httpgd polygon, .httpgd path, .httpgd rect, .httpgd circle {
      fill: none;
      stroke: #000000;
      stroke-linecap: round;
      stroke-linejoin: round;
      stroke-miterlimit: 10.00;
    }
  ]]></style>
<clipPath id="c0"><rect x="0.00" y="0.00" width="435.00" height="340.00"/></clipPath>
<clipPath id="c1"><rect x="6.75" y="17.86" width="322.14" height="322.14"/></clipPath>
<clipPath id="c2"><rect x="0.00" y="0.00" width="435.00" height="340.00"/></clipPath>
</defs>
<rect width="100%" height="100%" style="stroke: none;fill: #FFFFFF;"/>
<g clip-path="url(#c0)">
</g><g clip-path="url(#c1)">
<polygon points="167.82,89.12 167.82,84.24 167.82,79.36 167.82,74.48 167.82,69.59 167.82,64.71 167.82,59.83 167.82,54.95 167.82,50.07 163.45,50.14 159.08,50.37 154.73,50.74 150.39,51.25 146.07,51.92 141.77,52.73 137.51,53.69 133.28,54.79 129.09,56.03 124.94,57.41 120.85,58.94 116.80,60.60 112.82,62.40 108.90,64.33 105.05,66.39 101.27,68.59 97.56,70.91 93.94,73.35 90.40,75.92 86.95,78.60 83.60,81.40 80.34,84.32 77.18,87.34 74.12,90.47 71.18,93.69 68.34,97.02 65.62,100.44 63.02,103.95 60.54,107.55 58.18,111.23 55.94,114.99 53.84,118.82 51.87,122.72 50.03,126.68 48.32,130.71 46.76,134.79 45.33,138.92 44.04,143.10 42.90,147.31 41.90,151.57 41.04,155.86 40.33,160.17 39.77,164.50 39.36,168.85 39.09,173.22 38.97,177.59 39.00,181.96 39.17,186.32 39.50,190.68 39.97,195.03 40.59,199.35 41.36,203.66 42.27,207.93 43.32,212.17 44.52,216.38 45.86,220.54 47.34,224.65 48.96,228.71 50.72,232.71 52.61,236.65 54.64,240.52 56.79,244.33 59.07,248.06 61.48,251.70 64.01,255.27 66.66,258.75 69.42,262.13 72.30,265.42 75.29,268.61 78.38,271.70 81.58,274.68 84.88,277.54 88.27,280.30 91.75,282.94 95.33,285.46 98.98,287.86 102.71,290.13 106.52,292.27 110.40,294.29 114.35,296.17 118.36,297.91 122.42,299.52 126.54,300.99 130.70,302.32 134.91,303.51 139.15,304.56 143.43,305.46 147.73,306.21 152.06,306.82 156.41,307.28 160.77,307.59 165.13,307.76 169.50,307.77 173.87,307.64 178.23,307.36 182.58,306.94 186.92,306.36 191.23,305.64 195.51,304.77 199.76,303.76 203.98,302.61 208.15,301.31 212.28,299.87 216.36,298.29 220.38,296.58 224.34,294.73 228.23,292.75 232.06,290.63 235.81,288.39 239.48,286.02 243.07,283.53 246.58,280.91 249.99,278.19 253.31,275.34 256.53,272.39 259.65,269.32 262.66,266.16 265.57,262.89 268.36,259.53 271.03,256.07 273.59,252.53 276.02,248.90 278.34,245.19 280.52,241.40 282.57,237.54 284.49,233.62 286.28,229.63 287.93,225.58 289.45,221.48 290.82,217.33 292.05,213.14 293.14,208.90 294.09,204.64 294.88,200.34 295.54,196.02 296.04,191.68 296.40,187.32 296.61,182.96 296.68,178.58 296.59,174.21 296.36,169.85 295.97,165.50 295.44,161.16 294.77,156.84 293.95,152.55 292.98,148.28 288.24,149.44 283.50,150.61 278.76,151.77 274.02,152.93 269.27,154.09 264.53,155.25 259.79,156.41 255.05,157.57 255.99,161.83 256.71,166.13 257.23,170.46 257.53,174.81 257.63,179.17 257.51,183.53 257.18,187.87 256.64,192.20 255.89,196.50 254.94,200.75 253.78,204.95 252.41,209.09 250.85,213.16 249.09,217.15 247.14,221.05 245.00,224.85 242.68,228.54 240.18,232.12 237.52,235.57 234.68,238.88 231.70,242.06 228.56,245.08 225.27,247.95 221.86,250.66 218.31,253.20 214.65,255.56 210.87,257.75 207.00,259.74 203.03,261.55 198.98,263.16 194.85,264.57 190.66,265.78 186.42,266.79 182.13,267.59 177.81,268.18 173.47,268.56 169.11,268.73 164.75,268.69 160.40,268.43 156.06,267.97 151.76,267.29 147.49,266.41 143.27,265.32 139.10,264.02 135.01,262.53 130.99,260.84 127.05,258.95 123.22,256.88 119.49,254.62 115.87,252.19 112.38,249.58 109.01,246.81 105.79,243.87 102.71,240.79 99.78,237.55 97.02,234.18 94.42,230.68 91.99,227.06 89.75,223.32 87.68,219.48 85.81,215.54 84.13,211.52 82.65,207.42 81.37,203.25 80.29,199.03 79.41,194.75 78.75,190.45 78.30,186.11 78.05,181.76 78.02,177.40 78.20,173.04 78.59,168.70 79.20,164.38 80.01,160.09 81.02,155.85 82.25,151.67 83.67,147.55 85.29,143.50 87.11,139.54 89.12,135.67 91.31,131.90 93.68,128.24 96.23,124.70 98.94,121.29 101.82,118.01 104.86,114.88 108.04,111.90 111.36,109.08 114.82,106.42 118.40,103.94 122.10,101.63 125.91,99.50 129.81,97.56 133.80,95.81 137.88,94.26 142.02,92.90 146.23,91.75 150.49,90.81 154.78,90.07 159.11,89.54 163.46,89.22 167.82,89.12" style="stroke-width: 1.07;stroke: none;stroke-linecap: butt;stroke-linejoin: miter;fill: #D3D3D3;" />
<polygon points="255.05,157.57 259.79,156.41 264.53,155.25 269.27,154.09 274.02,152.93 278.76,151.77 283.50,150.61 288.24,149.44 292.98,148.28 291.86,144.03 290.60,139.82 289.19,135.66 287.65,131.54 285.96,127.48 284.14,123.48 282.18,119.54 280.08,115.68 277.86,111.88 275.51,108.17 273.03,104.54 270.43,100.99 267.72,97.54 264.88,94.18 261.93,90.91 258.88,87.75 255.71,84.70 252.45,81.76 249.08,78.93 245.62,76.21 242.08,73.62 238.44,71.15 234.72,68.80 230.93,66.58 227.06,64.49 223.12,62.54 219.12,60.72 215.05,59.04 210.94,57.50 206.77,56.10 202.56,54.84 198.30,53.73 194.01,52.76 189.70,51.94 185.35,51.27 180.99,50.75 176.60,50.37 172.21,50.15 167.82,50.07 167.82,54.95 167.82,59.83 167.82,64.71 167.82,69.59 167.82,74.48 167.82,79.36 167.82,84.24 167.82,89.12 172.24,89.23 176.66,89.55 181.05,90.10 185.41,90.86 189.73,91.83 193.99,93.02 198.19,94.41 202.32,96.01 206.36,97.81 210.31,99.81 214.16,102.00 217.89,104.37 221.50,106.93 224.98,109.66 228.33,112.56 231.52,115.62 234.56,118.84 237.44,122.20 240.15,125.70 242.69,129.33 245.04,133.08 247.21,136.94 249.18,140.90 250.95,144.95 252.53,149.09 253.89,153.30 255.05,157.57" style="stroke-width: 1.07;stroke: none;stroke-linecap: butt;stroke-linejoin: miter;fill: #49997C;" />
<g><text x="100.32" y="269.02" text-anchor="middle" style="font-family: Arial;font-size: 11.38px;" textLength="46.17px" lengthAdjust="spacingAndGlyphs">923 mins</text></g>
<g><text x="235.31" y="97.00" text-anchor="middle" style="font-family: Arial;font-size: 11.38px;" textLength="46.17px" lengthAdjust="spacingAndGlyphs">248 mins</text></g>
</g><g clip-path="url(#c2)">
<g><text x="334.56" y="162.85" style="font-family: Arial;font-size: 11.00px;" textLength="58.67px" lengthAdjust="spacingAndGlyphs">Activity type</text></g>
<rect x="335.27" y="170.26" width="15.86" height="15.86" style="stroke-width: 1.07;stroke: none;stroke-linecap: butt;stroke-linejoin: miter;fill: #D3D3D3;"/>
<rect x="335.27" y="187.54" width="15.86" height="15.86" style="stroke-width: 1.07;stroke: none;stroke-linecap: butt;stroke-linejoin: miter;fill: #49997C;"/>
<g><text x="357.32" y="181.34" style="font-family: Arial;font-size: 8.80px;" textLength="70.93px" lengthAdjust="spacingAndGlyphs">seden_active_min</text></g>
<g><text x="357.32" y="198.62" style="font-family: Arial;font-size: 8.80px;" textLength="42.06px" lengthAdjust="spacingAndGlyphs">active_min</text></g>
<g><text x="6.75" y="14.94" style="font-family: Arial;font-size: 13.20px;" textLength="64.50px" lengthAdjust="spacingAndGlyphs">Active time</text></g>
</g>
</svg>