<svg xmlns="http://www.w3.org/2000/svg" xmlns:xlink="http://www.w3.org/1999/xlink" class="httpgd" width="693.00" height="430.00" viewBox="0 0 693.00 430.00">
<defs>
  <style type='text/css'><![CDATA[
    .httpgd line, .httpgd polyline, .httpgd polygon, .httpgd path, .httpgd rect, .httpgd circle {
      fill: none;
      stroke: #000000;
      stroke-linecap: round;
      stroke-linejoin: round;
      stroke-miterlimit: 10.00;
    }
  ]]></style>
<clipPath id="c0"><rect x="0.00" y="0.00" width="693.00" height="430.00"/></clipPath>
<clipPath id="c1"><rect x="0.00" y="15.81" width="346.50" height="414.19"/></clipPath>
<clipPath id="c2"><rect x="0.00" y="0.00" width="693.00" height="430.00"/></clipPath>
<clipPath id="c3"><rect x="38.16" y="54.95" width="302.86" height="343.31"/></clipPath>
<clipPath id="c4"><rect x="0.00" y="0.00" width="693.00" height="430.00"/></clipPath>
<clipPath id="c5"><rect x="346.50" y="86.25" width="291.16" height="291.16"/></clipPath>
<clipPath id="c6"><rect x="0.00" y="0.00" width="693.00" height="430.00"/></clipPath>
</defs>
<rect width="100%" height="100%" style="stroke: none;fill: #FFFFFF;"/>
<g clip-path="url(#c0)">
</g><g clip-path="url(#c3)">
<polyline points="38.16,351.67 341.02,351.67" style="stroke-width: 0.53;stroke: #EBEBEB;stroke-linecap: butt;"/>
<polyline points="38.16,289.68 341.02,289.68" style="stroke-width: 0.53;stroke: #EBEBEB;stroke-linecap: butt;"/>
<polyline points="38.16,227.70 341.02,227.70" style="stroke-width: 0.53;stroke: #EBEBEB;stroke-linecap: butt;"/>
<polyline points="38.16,165.71 341.02,165.71" style="stroke-width: 0.53;stroke: #EBEBEB;stroke-linecap: butt;"/>
<polyline points="38.16,103.72 341.02,103.72" style="stroke-width: 0.53;stroke: #EBEBEB;stroke-linecap: butt;"/>
<polyline points="38.16,382.66 341.02,382.66" style="stroke-width: 1.07;stroke: #EBEBEB;stroke-linecap: butt;"/>
<polyline points="38.16,320.68 341.02,320.68" style="stroke-width: 1.07;stroke: #EBEBEB;stroke-linecap: butt;"/>
<polyline points="38.16,258.69 341.02,258.69" style="stroke-width: 1.07;stroke: #EBEBEB;stroke-linecap: butt;"/>
<polyline points="38.16,196.70 341.02,196.70" style="stroke-width: 1.07;stroke: #EBEBEB;stroke-linecap: butt;"/>
<polyline points="38.16,134.72 341.02,134.72" style="stroke-width: 1.07;stroke: #EBEBEB;stroke-linecap: butt;"/>
<polyline points="38.16,72.73 341.02,72.73" style="stroke-width: 1.07;stroke: #EBEBEB;stroke-linecap: butt;"/>
<polyline points="63.40,398.27 63.40,54.95" style="stroke-width: 1.07;stroke: #EBEBEB;stroke-linecap: butt;"/>
<polyline points="105.47,398.27 105.47,54.95" style="stroke-width: 1.07;stroke: #EBEBEB;stroke-linecap: butt;"/>
<polyline points="147.53,398.27 147.53,54.95" style="stroke-width: 1.07;stroke: #EBEBEB;stroke-linecap: butt;"/>
<polyline points="189.59,398.27 189.59,54.95" style="stroke-width: 1.07;stroke: #EBEBEB;stroke-linecap: butt;"/>
<polyline points="231.66,398.27 231.66,54.95" style="stroke-width: 1.07;stroke: #EBEBEB;stroke-linecap: butt;"/>
<polyline points="273.72,398.27 273.72,54.95" style="stroke-width: 1.07;stroke: #EBEBEB;stroke-linecap: butt;"/>
<polyline points="315.78,398.27 315.78,54.95" style="stroke-width: 1.07;stroke: #EBEBEB;stroke-linecap: butt;"/>
<rect x="44.47" y="123.05" width="18.93" height="259.62" style="stroke-width: 1.07;stroke-linecap: butt;stroke-linejoin: miter;fill: #F3DF6C;"/>
<rect x="63.40" y="99.90" width="18.93" height="282.76" style="stroke-width: 1.07;stroke-linecap: butt;stroke-linejoin: miter;fill: #CEAB07;"/>
<rect x="86.54" y="131.90" width="18.93" height="250.76" style="stroke-width: 1.07;stroke-linecap: butt;stroke-linejoin: miter;fill: #F3DF6C;"/>
<rect x="105.47" y="107.88" width="18.93" height="274.78" style="stroke-width: 1.07;stroke-linecap: butt;stroke-linejoin: miter;fill: #CEAB07;"/>
<rect x="128.60" y="113.22" width="18.93" height="269.44" style="stroke-width: 1.07;stroke-linecap: butt;stroke-linejoin: miter;fill: #F3DF6C;"/>
<rect x="147.53" y="91.31" width="18.93" height="291.35" style="stroke-width: 1.07;stroke-linecap: butt;stroke-linejoin: miter;fill: #CEAB07;"/>
<rect x="170.66" y="133.25" width="18.93" height="249.41" style="stroke-width: 1.07;stroke-linecap: butt;stroke-linejoin: miter;fill: #F3DF6C;"/>
<rect x="189.59" y="112.53" width="18.93" height="270.13" style="stroke-width: 1.07;stroke-linecap: butt;stroke-linejoin: miter;fill: #CEAB07;"/>
<rect x="212.73" y="131.36" width="18.93" height="251.30" style="stroke-width: 1.07;stroke-linecap: butt;stroke-linejoin: miter;fill: #F3DF6C;"/>
<rect x="231.66" y="106.79" width="18.93" height="275.87" style="stroke-width: 1.07;stroke-linecap: butt;stroke-linejoin: miter;fill: #CEAB07;"/>
<rect x="254.79" y="121.82" width="18.93" height="260.84" style="stroke-width: 1.07;stroke-linecap: butt;stroke-linejoin: miter;fill: #F3DF6C;"/>
<rect x="273.72" y="96.74" width="18.93" height="285.93" style="stroke-width: 1.07;stroke-linecap: butt;stroke-linejoin: miter;fill: #CEAB07;"/>
<rect x="296.85" y="102.02" width="18.93" height="280.64" style="stroke-width: 1.07;stroke-linecap: butt;stroke-linejoin: miter;fill: #F3DF6C;"/>
<rect x="315.78" y="70.56" width="18.93" height="312.10" style="stroke-width: 1.07;stroke-linecap: butt;stroke-linejoin: miter;fill: #CEAB07;"/>
<g><text x="52.89" y="119.09" text-anchor="middle" style="font-family: Arial;font-size: 11.04px;" textLength="18.40px" lengthAdjust="spacingAndGlyphs">419</text></g>
<g><text x="73.92" y="95.94" text-anchor="middle" style="font-family: Arial;font-size: 11.04px;" textLength="18.40px" lengthAdjust="spacingAndGlyphs">456</text></g>
<g><text x="94.95" y="127.95" text-anchor="middle" style="font-family: Arial;font-size: 11.04px;" textLength="18.40px" lengthAdjust="spacingAndGlyphs">405</text></g>
<g><text x="115.98" y="103.93" text-anchor="middle" style="font-family: Arial;font-size: 11.04px;" textLength="18.40px" lengthAdjust="spacingAndGlyphs">443</text></g>
<g><text x="137.01" y="109.26" text-anchor="middle" style="font-family: Arial;font-size: 11.04px;" textLength="18.40px" lengthAdjust="spacingAndGlyphs">435</text></g>
<g><text x="158.04" y="87.35" text-anchor="middle" style="font-family: Arial;font-size: 11.04px;" textLength="18.40px" lengthAdjust="spacingAndGlyphs">470</text></g>
<g><text x="179.08" y="129.29" text-anchor="middle" style="font-family: Arial;font-size: 11.04px;" textLength="18.40px" lengthAdjust="spacingAndGlyphs">402</text></g>
<g><text x="200.11" y="108.57" text-anchor="middle" style="font-family: Arial;font-size: 11.04px;" textLength="18.40px" lengthAdjust="spacingAndGlyphs">436</text></g>
<g><text x="221.14" y="127.40" text-anchor="middle" style="font-family: Arial;font-size: 11.04px;" textLength="18.40px" lengthAdjust="spacingAndGlyphs">405</text></g>
<g><text x="242.17" y="102.83" text-anchor="middle" style="font-family: Arial;font-size: 11.04px;" textLength="18.40px" lengthAdjust="spacingAndGlyphs">445</text></g>
<g><text x="263.20" y="117.86" text-anchor="middle" style="font-family: Arial;font-size: 11.04px;" textLength="18.40px" lengthAdjust="spacingAndGlyphs">421</text></g>
<g><text x="284.23" y="92.78" text-anchor="middle" style="font-family: Arial;font-size: 11.04px;" textLength="18.40px" lengthAdjust="spacingAndGlyphs">461</text></g>
<g><text x="305.27" y="98.07" text-anchor="middle" style="font-family: Arial;font-size: 11.04px;" textLength="18.40px" lengthAdjust="spacingAndGlyphs">453</text></g>
<g><text x="326.30" y="66.60" text-anchor="middle" style="font-family: Arial;font-size: 11.04px;" textLength="18.40px" lengthAdjust="spacingAndGlyphs">504</text></g>
</g><g clip-path="url(#c4)">
<g><text x="33.23" y="385.81" text-anchor="end" style="font-family: Arial;font-size: 8.80px;fill: #4D4D4D;" textLength="4.90px" lengthAdjust="spacingAndGlyphs">0</text></g>
<g><text x="33.23" y="323.83" text-anchor="end" style="font-family: Arial;font-size: 8.80px;fill: #4D4D4D;" textLength="14.69px" lengthAdjust="spacingAndGlyphs">100</text></g>
<g><text x="33.23" y="261.84" text-anchor="end" style="font-family: Arial;font-size: 8.80px;fill: #4D4D4D;" textLength="14.69px" lengthAdjust="spacingAndGlyphs">200</text></g>
<g><text x="33.23" y="199.86" text-anchor="end" style="font-family: Arial;font-size: 8.80px;fill: #4D4D4D;" textLength="14.69px" lengthAdjust="spacingAndGlyphs">300</text></g>
<g><text x="33.23" y="137.87" text-anchor="end" style="font-family: Arial;font-size: 8.80px;fill: #4D4D4D;" textLength="14.69px" lengthAdjust="spacingAndGlyphs">400</text></g>
<g><text x="33.23" y="75.89" text-anchor="end" style="font-family: Arial;font-size: 8.80px;fill: #4D4D4D;" textLength="14.69px" lengthAdjust="spacingAndGlyphs">500</text></g>
<g><text x="63.40" y="409.50" text-anchor="middle" style="font-family: Arial;font-size: 8.80px;fill: #4D4D4D;" textLength="31.31px" lengthAdjust="spacingAndGlyphs">Monday</text></g>
<g><text x="105.47" y="409.50" text-anchor="middle" style="font-family: Arial;font-size: 8.80px;fill: #4D4D4D;" textLength="33.75px" lengthAdjust="spacingAndGlyphs">Tuesday</text></g>
<g><text x="147.53" y="409.50" text-anchor="middle" style="font-family: Arial;font-size: 8.80px;fill: #4D4D4D;" textLength="46.48px" lengthAdjust="spacingAndGlyphs">Wednesday</text></g>
<g><text x="189.59" y="409.50" text-anchor="middle" style="font-family: Arial;font-size: 8.80px;fill: #4D4D4D;" textLength="36.68px" lengthAdjust="spacingAndGlyphs">Thursday</text></g>
<g><text x="231.66" y="409.50" text-anchor="middle" style="font-family: Arial;font-size: 8.80px;fill: #4D4D4D;" textLength="24.44px" lengthAdjust="spacingAndGlyphs">Friday</text></g>
<g><text x="273.72" y="409.50" text-anchor="middle" style="font-family: Arial;font-size: 8.80px;fill: #4D4D4D;" textLength="35.22px" lengthAdjust="spacingAndGlyphs">Saturday</text></g>
<g><text x="315.78" y="409.50" text-anchor="middle" style="font-family: Arial;font-size: 8.80px;fill: #4D4D4D;" textLength="29.85px" lengthAdjust="spacingAndGlyphs">Sunday</text></g>
<g><text x="189.59" y="422.09" text-anchor="middle" style="font-family: Arial;font-size: 11.00px;" textLength="45.86px" lengthAdjust="spacingAndGlyphs">Weekday</text></g>
<g><text transform="translate(13.37,226.61) rotate(-90.00)" text-anchor="middle" style="font-family: Arial;font-size: 11.00px;" textLength="64.79px" lengthAdjust="spacingAndGlyphs">Time(minute)</text></g>
<g><text x="38.16" y="47.04" style="font-family: Arial;font-size: 11.00px;" textLength="47.08px" lengthAdjust="spacingAndGlyphs">In a week</text></g>
<g><text x="38.16" y="30.75" style="font-family: Arial;font-size: 13.20px;" textLength="279.39px" lengthAdjust="spacingAndGlyphs">Daily average amount of time asleep and in bed</text></g>
</g><g clip-path="url(#c5)">
<polygon points="492.08,231.83 490.18,228.30 488.27,224.76 486.37,221.23 484.46,217.69 482.55,214.16 480.65,210.62 478.74,207.09 476.84,203.55 474.93,200.02 473.03,196.48 471.12,192.95 469.21,189.41 467.31,185.88 465.40,182.34 463.50,178.81 461.59,175.27 459.69,171.74 457.78,168.20 455.87,164.67 453.97,161.13 452.06,157.60 450.16,154.06 448.25,150.53 446.35,146.99 444.44,143.46 442.53,139.92 440.63,136.39 438.72,132.85 436.82,129.31 433.38,131.24 430.01,133.29 426.71,135.45 423.48,137.71 420.34,140.09 417.27,142.57 414.30,145.15 411.41,147.84 408.61,150.61 405.91,153.49 403.31,156.45 400.81,159.50 398.41,162.63 396.12,165.84 393.94,169.12 391.88,172.48 389.92,175.91 388.09,179.40 386.37,182.95 384.78,186.55 383.31,190.21 381.96,193.91 380.74,197.66 379.65,201.45 378.69,205.27 377.85,209.13 377.15,213.01 376.58,216.91 376.14,220.83 375.83,224.76 375.66,228.69 375.62,232.64 375.71,236.58 375.94,240.51 376.30,244.44 376.79,248.35 377.42,252.24 378.18,256.11 379.06,259.95 380.08,263.76 381.22,267.54 382.50,271.27 383.89,274.95 385.41,278.59 387.06,282.18 388.82,285.70 390.70,289.17 392.70,292.56 394.82,295.89 397.04,299.15 399.37,302.33 401.81,305.42 404.35,308.44 407.00,311.36 409.74,314.20 412.57,316.94 415.50,319.58 418.51,322.12 421.61,324.56 424.79,326.89 428.04,329.11 431.37,331.23 434.77,333.22 438.24,335.10 441.76,336.87 445.35,338.51 448.98,340.03 452.67,341.43 456.40,342.70 460.18,343.84 463.98,344.86 467.83,345.75 471.70,346.50 475.59,347.13 479.50,347.62 483.43,347.98 487.36,348.20 491.30,348.30 495.25,348.26 499.18,348.08 503.12,347.78 507.03,347.34 510.93,346.76 514.81,346.06 518.67,345.23 522.49,344.26 526.28,343.17 530.02,341.95 533.73,340.60 537.39,339.13 540.99,337.53 544.54,335.82 548.03,333.98 551.46,332.03 554.81,329.96 558.10,327.78 561.31,325.49 564.44,323.10 567.49,320.59 570.45,317.99 573.32,315.29 576.10,312.49 578.78,309.60 581.36,306.62 583.84,303.56 586.22,300.41 588.48,297.19 590.64,293.89 592.68,290.52 594.61,287.08 596.42,283.58 598.12,280.01 599.69,276.40 601.13,272.73 602.45,269.02 603.65,265.26 604.72,261.46 605.65,257.63 606.46,253.78 607.14,249.89 607.69,245.99 608.10,242.07 608.38,238.13 608.52,234.19 608.54,230.25 608.42,226.31 608.16,222.38 607.78,218.45 607.26,214.55 606.61,210.66 605.82,206.79 604.91,202.96 603.87,199.16 602.70,195.39 601.40,191.67 599.98,187.99 598.44,184.36 596.77,180.79 594.98,177.28 593.07,173.83 591.05,170.44 588.92,167.13 586.67,163.89 584.32,160.72 581.86,157.64 579.30,154.65 576.63,151.74 573.88,148.92 571.02,146.20 568.08,143.58 565.05,141.06 561.93,138.64 558.74,136.33 555.47,134.13 552.13,132.04 548.71,130.06 545.24,128.20 541.70,126.47 538.10,124.85 534.46,123.35 530.76,121.98 527.02,120.73 523.24,119.61 519.42,118.62 515.58,117.76 511.70,117.03 507.80,116.43 503.89,115.97 499.96,115.63 496.02,115.43 492.08,115.37 492.08,119.38 492.08,123.40 492.08,127.42 492.08,131.43 492.08,135.45 492.08,139.46 492.08,143.48 492.08,147.50 492.08,151.51 492.08,155.53 492.08,159.54 492.08,163.56 492.08,167.58 492.08,171.59 492.08,175.61 492.08,179.62 492.08,183.64 492.08,187.66 492.08,191.67 492.08,195.69 492.08,199.71 492.08,203.72 492.08,207.74 492.08,211.75 492.08,215.77 492.08,219.79 492.08,223.80 492.08,227.82 492.08,231.83 492.08,231.83" style="stroke-width: 1.07;stroke-linecap: butt;stroke-linejoin: miter;fill: #CEAB07;" />
<polygon points="492.08,231.83 492.08,227.82 492.08,223.80 492.08,219.79 492.08,215.77 492.08,211.75 492.08,207.74 492.08,203.72 492.08,199.71 492.08,195.69 492.08,191.67 492.08,187.66 492.08,183.64 492.08,179.62 492.08,175.61 492.08,171.59 492.08,167.58 492.08,163.56 492.08,159.54 492.08,155.53 492.08,151.51 492.08,147.50 492.08,143.48 492.08,139.46 492.08,135.45 492.08,131.43 492.08,127.42 492.08,123.40 492.08,119.38 492.08,115.37 487.97,115.44 483.86,115.66 479.77,116.02 475.69,116.53 471.62,117.18 467.59,117.97 463.58,118.91 459.61,119.99 455.69,121.20 451.80,122.56 447.97,124.05 444.19,125.67 440.47,127.43 436.82,129.31 438.72,132.85 440.63,136.39 442.53,139.92 444.44,143.46 446.35,146.99 448.25,150.53 450.16,154.06 452.06,157.60 453.97,161.13 455.87,164.67 457.78,168.20 459.69,171.74 461.59,175.27 463.50,178.81 465.40,182.34 467.31,185.88 469.21,189.41 471.12,192.95 473.03,196.48 474.93,200.02 476.84,203.55 478.74,207.09 480.65,210.62 482.55,214.16 484.46,217.69 486.37,221.23 488.27,224.76 490.18,228.30 492.08,231.83 492.08,231.83" style="stroke-width: 1.07;stroke-linecap: butt;stroke-linejoin: miter;fill: #F3DF6C;" />
<polygon points="481.60,295.81 507.25,295.81 507.16,295.81 507.51,295.79 507.85,295.73 508.18,295.60 508.48,295.43 508.75,295.21 508.98,294.95 509.16,294.65 509.30,294.33 509.38,294.00 509.41,293.65 509.41,293.65 509.41,282.61 509.41,282.61 509.38,282.26 509.30,281.92 509.16,281.60 508.98,281.31 508.75,281.05 508.48,280.83 508.18,280.65 507.85,280.53 507.51,280.46 507.25,280.45 481.60,280.45 481.86,280.46 481.51,280.45 481.16,280.49 480.83,280.59 480.52,280.73 480.23,280.93 479.98,281.17 479.77,281.45 479.61,281.76 479.50,282.09 479.44,282.43 479.44,282.61 479.44,293.65 479.44,293.48 479.44,293.82 479.50,294.17 479.61,294.50 479.77,294.80 479.98,295.08 480.23,295.32 480.52,295.52 480.83,295.67 481.16,295.77 481.51,295.81" style="stroke-width: 0.53;fill: #CEAB07;" />
<g><text x="482.67" y="289.61" style="font-family: Arial;font-size: 11.38px;" textLength="22.77px" lengthAdjust="spacingAndGlyphs">92%</text></g>
<polygon points="465.13,180.57 484.45,180.57 484.37,180.57 484.71,180.56 485.05,180.49 485.38,180.37 485.68,180.19 485.95,179.97 486.18,179.71 486.36,179.42 486.50,179.10 486.58,178.76 486.61,178.41 486.61,178.41 486.61,167.37 486.61,167.37 486.58,167.02 486.50,166.69 486.36,166.37 486.18,166.07 485.95,165.81 485.68,165.59 485.38,165.42 485.05,165.29 484.71,165.23 484.45,165.21 465.13,165.21 465.39,165.23 465.04,165.21 464.70,165.25 464.36,165.35 464.05,165.50 463.76,165.70 463.51,165.94 463.30,166.22 463.14,166.52 463.03,166.85 462.97,167.20 462.97,167.37 462.97,178.41 462.97,178.24 462.97,178.59 463.03,178.93 463.14,179.26 463.30,179.57 463.51,179.85 463.76,180.09 464.05,180.28 464.36,180.43 464.70,180.53 465.04,180.57" style="stroke-width: 0.53;fill: #F3DF6C;" />
<g><text x="483.72" y="177.16" text-anchor="end" style="font-family: Arial;font-size: 11.38px;" textLength="16.44px" lengthAdjust="spacingAndGlyphs">8%</text></g>
</g><g clip-path="url(#c6)">
<rect x="644.04" y="223.16" width="15.86" height="15.86" style="stroke-width: 1.07;stroke-linecap: butt;stroke-linejoin: miter;fill: #F3DF6C;"/>
<rect x="643.33" y="222.46" width="17.28" height="17.28" style="stroke-width: 0.75;stroke: none;fill: #F3DF6C;"/>
<g><text x="651.97" y="235.18" text-anchor="middle" style="font-family: Arial;font-size: 11.38px;" textLength="6.33px" lengthAdjust="spacingAndGlyphs">a</text></g>
<rect x="644.04" y="240.44" width="15.86" height="15.86" style="stroke-width: 1.07;stroke-linecap: butt;stroke-linejoin: miter;fill: #CEAB07;"/>
<rect x="643.33" y="239.74" width="17.28" height="17.28" style="stroke-width: 0.75;stroke: none;fill: #CEAB07;"/>
<g><text x="651.97" y="252.46" text-anchor="middle" style="font-family: Arial;font-size: 11.38px;" textLength="6.33px" lengthAdjust="spacingAndGlyphs">a</text></g>
<g><text x="666.09" y="234.25" style="font-family: Arial;font-size: 8.80px;" textLength="26.91px" lengthAdjust="spacingAndGlyphs">Asleep</text></g>
<g><text x="666.09" y="251.53" style="font-family: Arial;font-size: 8.80px;" textLength="25.44px" lengthAdjust="spacingAndGlyphs">In Bed</text></g>
<g><text x="346.50" y="83.34" style="font-family: Arial;font-size: 13.20px;" textLength="282.30px" lengthAdjust="spacingAndGlyphs">Percentage of asleep time relative to in bed time</text></g>
<g><text x="346.50" y="12.21" text-anchor="middle" style="font-family: Arial;font-size: 12.00px;" textLength="164.07px" lengthAdjust="spacingAndGlyphs">Average sleep time distribution</text></g>
</g>
</svg>